<svg width="58" height="83" viewBox="0 0 58 83" fill="none" xmlns="http://www.w3.org/2000/svg">
<g clip-path="url(#clip0_28_94)">
<path d="M57.6489 50.7219C57.5252 50.2239 57.3955 49.7318 57.254 49.2397C56.9564 48.2022 56.5673 47.2092 56.1046 46.2369C55.2323 44.405 54.0151 42.8428 52.7655 41.2569C51.6338 39.8341 50.1632 38.7462 48.9018 37.4478C48.2711 36.7957 47.6669 36.1287 47.0215 35.4944C46.9213 35.3936 46.8064 35.3076 46.7003 35.2098C46.7003 35.1831 46.715 35.1624 46.715 35.1357C46.715 35.023 46.6678 34.9223 46.6502 34.8126C46.7857 34.4598 46.8535 34.0863 46.8299 33.6891C46.8329 33.7187 46.8388 33.7484 46.8417 33.778C46.6737 31.7445 46.6826 29.6873 46.5942 27.6538C46.5588 26.809 46.1226 26.0857 45.4801 25.6322C45.5833 25.3328 45.6658 25.0364 45.7159 24.6895C45.7896 24.2123 45.878 23.7439 45.9753 23.2726C46.1727 22.3033 46.4085 21.3458 46.6443 20.3824C46.8741 19.4428 47.1689 18.5179 47.4724 17.6049C47.6758 16.9883 47.8732 16.3747 48.0294 15.7522C48.3006 14.6821 48.3625 13.5616 48.3448 12.4619C48.333 11.703 48.3448 10.8522 48.0795 10.1438C47.8762 9.60429 47.6345 9.13 47.1954 8.74464C46.9743 8.55789 46.7209 8.37114 46.4792 8.19329C46.0018 7.8435 45.4772 7.60932 44.9084 7.41664C44.2659 7.20025 43.591 7.06389 42.9367 6.88307C42.6833 6.81489 42.4269 6.75561 42.1675 6.69929C42.1587 6.308 42.1499 5.91671 42.1322 5.52839C42.0998 4.79325 42.0025 4.067 41.9023 3.33779C41.805 2.65304 41.4514 2.07796 41.0005 1.57404C40.5938 1.1205 40.0191 0.898178 39.4738 0.696607C38.9787 0.509857 38.4364 0.284572 37.9148 0.210465C37.2841 0.118572 36.6917 0.0563214 36.0551 0.0681786C35.4746 0.0770714 34.8822 0.174893 34.3045 0.225286C33.0638 0.323107 31.8142 0.272714 30.5764 0.243071C29.9781 0.231214 29.3887 0.198607 28.7904 0.180822C28.3896 0.168965 27.9917 0.174893 27.5909 0.180822C27.3257 0.180822 27.0604 0.18675 26.7981 0.180822C25.6045 0.168965 24.405 0.074107 23.2144 0.011857C23.07 0.00296413 22.9315 0 22.7959 0C22.2949 0 21.785 0.0474289 21.3046 0.142286C20.1582 0.361643 19.2181 1.245 18.8673 2.35068C18.664 2.99689 18.6758 3.80021 18.664 4.482C18.6463 5.22011 18.6935 5.96118 18.7023 6.70521C18.7141 7.51446 18.7347 8.32964 18.7465 9.14186C18.7524 9.59243 18.7642 10.046 18.7671 10.4965C18.1659 10.5202 17.5647 10.5529 16.9605 10.6033C16.1029 10.6714 15.2541 10.7781 14.4024 10.8997C13.9191 10.9679 13.4888 11.1605 13.0497 11.3651C12.5929 11.5755 12.2775 12.0557 11.9975 12.4292C11.7116 12.8205 11.638 13.4727 11.6203 13.9232C11.6144 14.2582 11.7058 14.5991 11.7676 14.9252C11.9032 15.601 12.1508 16.2502 12.36 16.9083C12.6017 17.6731 12.7608 18.4675 12.9229 19.256C13.1204 20.1749 13.3237 21.079 13.5418 21.992C13.6656 22.493 13.8572 22.9791 14.0252 23.4712C13.754 23.6461 13.5271 23.8595 13.3444 24.1263C13.1558 24.239 12.9583 24.3309 12.805 24.488C12.2746 25.0275 12.1184 25.6263 12.0388 26.3525C11.8767 27.8139 11.8089 29.2694 11.7058 30.7337C11.6498 31.6171 11.7676 32.5182 11.9975 33.369C12.1243 33.8314 12.4013 34.199 12.7255 34.5161C11.7912 35.3906 10.8864 36.3006 9.95809 37.181C9.01795 38.0762 8.20159 39.0871 7.36165 40.0712C6.34783 41.254 5.35169 42.4397 4.45576 43.7203C3.61582 44.9089 3.04702 46.2251 2.4959 47.5679C2.0332 48.6825 1.60586 49.8119 1.19031 50.9383C0.733501 52.1744 0.47415 53.5054 0.250167 54.8037C-0.239061 57.6257 -0.059284 60.5604 0.533094 63.3468C0.695187 64.1175 0.972219 64.8764 1.21978 65.6263C1.52334 66.5452 1.90647 67.4286 2.30139 68.312C2.61084 69.0145 2.98807 69.7022 3.35057 70.381C3.99305 71.5697 4.9833 72.4323 5.9146 73.3779C7.06988 74.5547 8.17212 75.7582 9.40108 76.8639C10.3825 77.7414 11.4346 78.5299 12.6076 79.1316C13.4799 79.5851 14.3877 79.9586 15.2954 80.3381C15.0744 80.2491 14.8563 80.1572 14.6411 80.0683C15.8819 80.6019 17.1079 81.2629 18.4164 81.6305C19.554 81.9595 20.7211 82.1018 21.8852 82.3064C23.2498 82.5376 24.6614 82.7154 26.0496 82.7658C27.193 82.8044 28.3248 82.9289 29.4683 82.9644C31.6993 83.0267 33.9361 83.0949 36.1436 82.7273C37.1927 82.5494 38.2154 82.3182 39.2469 82.0692C40.414 81.7876 41.5398 81.3222 42.6538 80.8805C43.9653 80.3588 45.2444 79.7926 46.4615 79.0723C47.6551 78.3757 48.7191 77.5042 49.724 76.5497C51.6515 74.7267 53.6614 72.8562 54.8167 70.4136C55.4238 69.1212 55.9278 67.7843 56.3375 66.4119C56.7147 65.1609 57.1214 63.9367 57.3631 62.6442C57.6342 61.2214 57.7521 59.7481 57.7462 58.2986C57.7403 57.6524 57.7521 57.0002 57.7698 56.357C57.7934 55.5003 57.9437 54.6436 58.0173 53.7959C58.0969 52.7732 57.8906 51.7001 57.6489 50.7219ZM17.0814 32.207C17.0666 32.1269 17.0873 32.0439 17.0637 31.9639C16.993 31.7208 16.934 31.4718 16.8839 31.2228C16.7955 30.0756 16.934 28.9077 17.0932 27.7605C20.4441 27.639 23.7979 27.5145 27.1547 27.5026C30.9241 27.4878 34.7024 27.5145 38.4541 27.9562C38.2567 27.9354 38.0592 27.9058 37.8617 27.8791C38.7282 28.0036 39.574 28.0836 40.4523 28.1103C40.8531 28.1251 41.2569 28.1518 41.6577 28.1785C41.7225 29.1449 41.7874 30.1082 41.8522 31.0805C41.8994 31.7297 41.9406 32.3848 41.9848 33.0399C41.4308 33.0696 40.8796 33.0814 40.3226 33.0785C40.0014 33.0725 39.6743 33.0725 39.353 33.0725C38.3775 33.0844 37.4108 33.0399 36.4353 33.0162C34.2603 32.9717 32.0912 33.0162 29.9162 32.9599C25.637 32.8443 21.3606 32.5004 17.0814 32.207ZM43.2875 12.2751C43.2934 12.3107 43.2963 12.3462 43.3022 12.3818C43.2963 12.3462 43.2904 12.3077 43.2875 12.2751ZM19.9195 15.2097C20.2319 15.2661 20.5443 15.3254 20.8685 15.3669C21.1337 15.3787 21.3872 15.3402 21.6229 15.2364C22.2654 14.9934 22.734 14.6851 23.1053 14.0922C23.4885 13.4786 23.624 12.7553 23.6683 12.0469C23.7301 10.9323 23.6388 9.81475 23.6388 8.70018C23.6329 7.77532 23.6712 6.85639 23.7007 5.9345C23.7095 5.64104 23.7154 5.34757 23.7272 5.05411C24.3608 5.08968 24.9945 5.16675 25.6163 5.229C26.9013 5.35943 28.1951 5.40982 29.48 5.48393C30.8033 5.55804 32.1266 5.58768 33.4528 5.54025C34.4814 5.50171 35.5011 5.42761 36.5237 5.50468C36.6976 5.54618 36.8656 5.59954 37.0336 5.65882C37.0454 5.73293 37.0572 5.80407 37.069 5.87818C37.1426 6.5155 37.1986 7.15579 37.181 7.79904C37.1633 8.28221 37.1633 8.64979 37.2546 9.15964C37.346 9.66357 37.7055 10.0549 37.9973 10.4402C38.2891 10.8137 38.9316 11.0686 39.3501 11.2169C39.7951 11.368 40.3079 11.4036 40.7706 11.4955C41.4661 11.6348 42.1941 11.8186 42.8719 12.0587C43.0045 12.1239 43.1342 12.1921 43.2609 12.2662C43.3258 12.9836 43.3582 13.6861 43.3051 14.4094C43.0134 16.0249 42.3856 17.5782 42.032 19.1849C41.8522 20.0297 41.6783 20.8686 41.5133 21.7134C41.3924 22.324 41.2922 22.9436 41.1154 23.5394C41.1036 23.5601 41.0889 23.5779 41.0771 23.5987C40.6468 23.575 40.2136 23.5601 39.7833 23.5424C38.7017 23.492 37.6201 23.4682 36.5385 23.3941C34.2397 23.237 31.9468 23.243 29.648 23.2489C27.3787 23.2489 25.1065 23.2311 22.8431 23.1748C21.6406 23.1481 20.4411 23.1333 19.2416 23.1125C18.9322 22.3033 18.6168 21.4881 18.387 20.6581C18.1335 19.757 17.8918 18.8558 17.6531 17.9547C17.4144 17.0624 17.1079 16.182 16.8426 15.2927C17.8683 15.1771 18.8939 15.1327 19.9195 15.2097ZM15.6402 74.6289C15.6373 74.6289 15.6314 74.6259 15.6284 74.6229C15.8406 74.7148 16.0528 74.8037 16.268 74.8927C16.0587 74.8067 15.8495 74.7178 15.6402 74.6289ZM52.4177 54.2257C52.2586 55.2987 52.1083 56.3777 52.07 57.4627C52.0405 58.3964 52.0051 59.3272 51.9167 60.258C51.7281 61.3844 51.4511 62.4782 51.0738 63.5691C50.7261 64.5651 50.4196 65.5789 50.0423 66.5571C49.5502 67.6628 49.0285 68.727 48.3477 69.7259C47.7347 70.4818 47.0775 71.2051 46.382 71.881C45.6923 72.5568 45.0292 73.2416 44.2954 73.8581C43.3818 74.4955 42.4151 75.029 41.3983 75.4885C40.467 75.8709 39.5151 76.2296 38.5514 76.5023C37.6024 76.772 36.6004 76.9469 35.616 77.0922C33.8006 77.3086 31.9733 77.3441 30.1432 77.356C29.038 77.3619 27.9564 77.2256 26.8541 77.1633C25.799 77.1011 24.7558 77.1011 23.7036 76.9884C22.3921 76.778 21.0807 76.5349 19.7898 76.2088C19.1532 76.0517 18.5461 75.7612 17.9419 75.5063C17.1757 75.1832 16.4065 74.8986 15.6284 74.6111C14.8975 74.282 14.1961 73.8641 13.5448 73.3987C12.6046 72.628 11.7117 71.7891 10.854 70.9265C10.3913 70.467 9.93452 69.9986 9.46887 69.5392C8.88238 68.9671 8.24285 68.472 7.70352 67.8525C6.96968 66.7972 6.35667 65.6619 5.82323 64.494C5.3399 63.2282 4.91551 61.9625 4.65911 60.6285C4.49702 59.0219 4.45576 57.4271 4.58543 55.8145C4.7711 54.6466 5.02161 53.4965 5.35464 52.3611C5.68767 51.2377 6.13563 50.1468 6.5836 49.056C6.84885 48.4483 7.11998 47.8465 7.41765 47.2566C7.71236 46.6608 8.10433 46.1154 8.49925 45.5759C9.59854 44.2064 10.7774 42.8665 11.9916 41.5949C12.6282 40.9309 13.309 40.3321 14.0016 39.7303C14.8121 39.0278 15.596 38.2867 16.3947 37.5723C16.6157 37.3767 16.7631 37.1336 16.878 36.8757C18.8644 36.9469 20.8508 37.0061 22.8431 37.0269C25.2037 37.0506 27.5644 37.2492 29.9251 37.2759C30.989 37.2877 32.0559 37.3026 33.1139 37.3144C33.4057 37.3204 33.7063 37.3204 33.998 37.3144C34.8144 37.3144 35.6308 37.3085 36.4442 37.4004C37.4079 37.513 38.3922 37.5694 39.3619 37.5871C39.9012 37.599 40.4376 37.599 40.9798 37.599C41.2569 37.599 41.5339 37.599 41.8139 37.602C42.3355 38.0733 42.8631 38.5387 43.367 39.0307C43.9859 39.6384 44.5341 40.3113 45.1294 40.9397C46.3201 42.1966 47.5844 43.3675 48.6837 44.7074C49.2289 45.4751 49.7624 46.2399 50.2516 47.0432C50.7231 47.8258 51.0797 48.6706 51.4363 49.5125C51.3803 49.3791 51.3243 49.2457 51.2713 49.1123C51.3273 49.2486 51.3833 49.382 51.4393 49.5184C51.8814 50.6152 52.2586 51.7386 52.4708 52.9066C52.4885 53.3631 52.4649 53.7899 52.4177 54.2257ZM51.4304 49.5362L51.4275 49.5302C51.4304 49.5302 51.4304 49.5362 51.4304 49.5362C51.4334 49.5391 51.4334 49.5362 51.4304 49.5362ZM35.949 59.1227C36.0404 59.5436 36.1524 60.0001 36.1465 60.4329C36.1347 61.5652 35.8371 62.6146 35.1651 63.5246C34.5167 64.408 33.6326 65.1639 32.6865 65.7123C31.9262 66.154 31.1216 66.4711 30.2699 66.6697C30.1844 67.1885 30.0901 67.7072 30.0076 68.226C29.9958 68.4216 30.0017 68.6114 30.0253 68.804C30.1048 69.4176 29.7158 70.1409 29.3091 70.547C28.8464 71.0124 28.2216 71.2733 27.5732 71.2733C26.9249 71.2733 26.2942 71.0124 25.8374 70.547C25.354 70.0609 25.1713 69.4769 25.1153 68.804C25.077 68.2379 25.1536 67.6835 25.2273 67.1144C25.2509 66.9247 25.2803 66.735 25.3069 66.5452C24.7823 66.403 24.2695 66.2132 23.7596 65.9761C23.2704 65.7449 22.7959 65.49 22.3302 65.2232C21.2929 64.6511 20.9628 63.246 21.5522 62.2441C22.177 61.1621 23.4561 60.9339 24.5141 61.4556C24.8 61.5979 25.0858 61.7401 25.3747 61.8706C25.8079 62.0306 26.2382 62.1492 26.6861 62.2352C27.3463 62.2737 28.0006 62.2589 28.6578 62.2055C28.9613 62.1462 29.259 62.0692 29.5508 61.9684C29.8985 61.7846 30.2227 61.5771 30.5381 61.3489C30.7532 61.1621 30.9566 60.9694 31.1511 60.7649C31.2012 60.6849 31.2483 60.6048 31.2925 60.5218C31.2925 60.4596 31.2925 60.3944 31.2896 60.3291C31.2542 60.1661 31.213 60.009 31.1629 59.8489C31.0745 59.677 30.9801 59.514 30.874 59.3509C30.7473 59.2086 30.6176 59.0723 30.4821 58.9419C30.4231 58.9063 30.3671 58.8737 30.3052 58.8411C29.1706 58.4794 27.9652 58.3757 26.7922 58.2037C26.1232 58.1089 25.4513 57.9844 24.7911 57.8362C24.2282 57.7117 23.6771 57.5931 23.1643 57.3204C22.5454 56.9973 22.0886 56.606 21.6701 56.0517C21.4225 55.7167 21.1632 55.275 21.0718 54.8689C20.8478 53.8996 20.6386 52.8295 20.9805 51.8542C21.2162 51.1902 21.4549 50.5915 21.9147 50.052C22.2183 49.6933 22.5631 49.4295 22.9462 49.1508C24.0101 48.3771 25.2568 47.9473 26.5329 47.6627C26.4916 47.31 26.4592 46.9572 26.4121 46.6075C26.359 46.2547 26.303 45.9049 26.2411 45.5551C26.1056 44.8407 26.1232 44.1856 26.5005 43.5335C26.8453 42.9495 27.4082 42.5079 28.0595 42.327C28.2864 42.2648 28.5193 42.2351 28.7491 42.2351C29.2089 42.2351 29.6687 42.3567 30.0695 42.5938C30.6059 42.9051 31.1688 43.5216 31.269 44.1619C31.4399 45.238 31.546 46.3229 31.6315 47.4138C32.3358 47.4938 33.0402 47.6094 33.7387 47.7487C35.1032 48.0155 35.8695 49.631 35.5188 50.8968C35.1356 52.2959 33.7387 52.9896 32.38 52.6872C31.6786 52.5331 30.9831 52.4056 30.2728 52.2989C29.3946 52.2129 28.5311 52.1536 27.6469 52.2189C27.1518 52.3107 26.6714 52.4353 26.194 52.6013C25.9258 52.7376 25.6694 52.8917 25.4189 53.0607C25.413 53.0815 25.4071 53.1052 25.4012 53.123C25.4012 53.1734 25.4041 53.2237 25.4071 53.2741C25.41 53.286 25.413 53.3008 25.4159 53.3156C26.6714 53.7188 28.0153 53.8966 29.3091 54.1012C29.9221 54.199 30.544 54.282 31.157 54.3917C32.159 54.5606 33.0667 54.9638 33.8153 55.6841C34.4195 56.2681 34.9883 56.9528 35.3596 57.7146C35.6013 58.1563 35.8429 58.6306 35.949 59.1227Z" fill="#40BBAA"/>
</g>
<defs>
<clipPath id="clip0_28_94">
<rect width="58" height="83" fill="white"/>
</clipPath>
</defs>
</svg>
