<svg width="57" height="57" viewBox="0 0 57 57" fill="none" xmlns="http://www.w3.org/2000/svg">
<path d="M54.625 28.5H52.8105C50.4557 28.5 48.3026 27.1694 47.2492 25.0629C47.1823 24.929 47.1122 24.7974 47.0403 24.6672C47.0283 24.6458 47.0161 24.6248 47.0041 24.6034C45.0709 21.155 41.4191 18.9999 37.4394 18.9999H32.8431C32.1277 16.9754 30.5244 15.3721 28.4999 14.6567V11.8749H45.1249C46.4365 11.8749 47.4998 10.8116 47.4998 9.49996C47.4998 8.18829 46.4365 7.125 45.1249 7.125H33.25V4.75004H45.1251C46.4367 4.75004 47.5 3.68674 47.5 2.37507C47.5 1.06329 46.4366 0 45.125 0H2.37496C1.06329 0 0 1.06329 0 2.37496C0 3.68663 1.06329 4.74993 2.37496 4.74993H14.25V7.125H2.37496C1.06329 7.125 0 8.18829 0 9.49996C0 10.8116 1.06329 11.8749 2.37496 11.8749H9.49996V14.25H7.125C3.18899 14.25 0 17.439 0 21.375V35.625V47.5C0 48.8117 1.06329 49.875 2.37496 49.875H4.74993C4.74993 53.811 7.93892 57 11.8749 57C15.8109 57 18.9999 53.811 18.9999 49.875H30.875H35.625C35.625 53.811 38.814 57 42.75 57C46.686 57 49.875 53.811 49.875 49.875H54.625C55.9367 49.875 57 48.8117 57 47.5V33.25V30.8751C57 29.5633 55.9367 28.5 54.625 28.5ZM40.375 26.125H42.312C42.5161 26.3764 42.6957 26.6369 42.8502 26.9063C42.8522 26.9098 42.8542 26.9134 42.8562 26.9168C42.906 27.0039 42.9531 27.0919 42.9976 27.1809C42.9987 27.183 42.9998 27.185 43.0008 27.1871C43.0027 27.1909 43.0047 27.1945 43.0066 27.1982C43.0555 27.2957 43.1059 27.3921 43.1573 27.4876C43.1765 27.5231 43.1963 27.5581 43.2158 27.5932C43.2514 27.6575 43.2873 27.7215 43.324 27.7848C43.3468 27.8242 43.3701 27.8634 43.3934 27.9025C43.4288 27.962 43.4648 28.021 43.5014 28.0795C43.5253 28.1179 43.5491 28.1564 43.5735 28.1945C43.6139 28.2576 43.6551 28.32 43.6967 28.3821C43.7177 28.4134 43.7381 28.4451 43.7594 28.4762C43.8213 28.5667 43.8844 28.6562 43.9488 28.7446C43.9665 28.7689 43.9849 28.7925 44.0027 28.8166C44.0515 28.8826 44.101 28.9482 44.1512 29.0129C44.177 29.0461 44.2033 29.0787 44.2293 29.1115C44.2734 29.167 44.3179 29.2221 44.3631 29.2766C44.3908 29.31 44.4186 29.3432 44.4465 29.3762C44.4932 29.4311 44.5405 29.4856 44.5881 29.5396C44.6144 29.5694 44.6406 29.5994 44.6672 29.6289C44.7262 29.6943 44.7862 29.7588 44.8466 29.8226C44.8623 29.8392 44.8777 29.8562 44.8935 29.8727C44.9699 29.9523 45.0475 30.0306 45.1261 30.1078C45.1485 30.1297 45.1714 30.1511 45.194 30.1729C45.2514 30.2284 45.3092 30.2834 45.3679 30.3375C45.3971 30.3644 45.4266 30.391 45.4561 30.4176C45.5099 30.4664 45.5643 30.5146 45.6191 30.5621C45.6497 30.5886 45.6802 30.615 45.7109 30.6411C45.7691 30.6905 45.8279 30.739 45.887 30.7871C45.9139 30.8091 45.9406 30.8312 45.9677 30.8529C45.9767 30.8602 45.9856 30.8677 45.9947 30.875H40.375V26.125ZM19 4.75004H28.5V7.125H19V4.75004ZM14.25 11.875H23.75V14.25H14.25V11.875ZM4.75004 21.375C4.75004 20.0623 5.81233 19 7.125 19H26.125C27.4377 19 28.5 20.0623 28.5 21.375V33.25H4.75004V21.375ZM11.875 52.25C10.5624 52.25 9.50007 51.1877 9.50007 49.875C9.50007 49.5095 9.58479 49.1648 9.73197 48.8557C9.76782 48.804 9.80255 48.7514 9.8345 48.6965C10.1584 48.1413 10.669 47.7464 11.2594 47.5833C11.262 47.5826 11.2646 47.582 11.2672 47.5813C11.3315 47.5638 11.397 47.5499 11.463 47.538C11.5075 47.5302 11.5521 47.5227 11.5974 47.5175C11.6203 47.5147 11.6434 47.5126 11.6664 47.5105C11.7352 47.5045 11.8046 47.5 11.8749 47.5C11.9453 47.5 12.0146 47.5046 12.0834 47.5105C12.1065 47.5126 12.1295 47.5147 12.1525 47.5175C12.1978 47.5227 12.2424 47.5302 12.2868 47.538C12.3529 47.5499 12.4183 47.5638 12.4827 47.5813C12.4852 47.582 12.4879 47.5826 12.4905 47.5833C13.0808 47.7464 13.5916 48.1413 13.9153 48.6965C13.9473 48.7514 13.9819 48.804 14.0179 48.8557C14.1651 49.1648 14.2499 49.5095 14.2499 49.875C14.25 51.1877 13.1877 52.25 11.875 52.25ZM17.1851 45.125C16.0439 43.8501 14.4509 42.9892 12.6569 42.7935C12.6501 42.7927 12.6434 42.7916 12.6366 42.791C12.5279 42.7794 12.4182 42.7709 12.308 42.7644C12.2902 42.7632 12.2725 42.7612 12.2546 42.7604C12.1289 42.7538 12.0024 42.7501 11.875 42.7501C11.7477 42.7501 11.6212 42.7538 11.4955 42.7604C11.4776 42.7614 11.46 42.7634 11.4421 42.7644C11.3319 42.7709 11.2222 42.7795 11.1134 42.791C11.1066 42.7917 11.1 42.7927 11.0932 42.7935C9.29924 42.9892 7.70613 43.8501 6.56502 45.125H4.75004V38H28.5V45.125H17.1851ZM42.75 52.25C41.4373 52.25 40.375 51.1877 40.375 49.875C40.375 49.5095 40.4598 49.1648 40.607 48.8557C40.6429 48.804 40.6775 48.7514 40.7096 48.6965C41.0334 48.1413 41.5441 47.7464 42.1345 47.5833C42.137 47.5826 42.1397 47.582 42.1423 47.5813C42.2066 47.5638 42.2721 47.5499 42.3381 47.538C42.3826 47.5302 42.4271 47.5227 42.4725 47.5175C42.4954 47.5147 42.5184 47.5126 42.5415 47.5105C42.6103 47.5045 42.6796 47.5 42.75 47.5C42.8204 47.5 42.8897 47.5046 42.9585 47.5105C42.9816 47.5126 43.0046 47.5147 43.0275 47.5175C43.0729 47.5227 43.1175 47.5302 43.1619 47.538C43.2279 47.5499 43.2934 47.5638 43.3577 47.5813C43.3603 47.582 43.363 47.5826 43.3655 47.5833C43.9559 47.7464 44.4667 48.1413 44.7904 48.6965C44.8224 48.7514 44.857 48.804 44.893 48.8557C45.0401 49.1648 45.125 49.5095 45.125 49.875C45.125 51.1877 44.0627 52.25 42.75 52.25ZM48.06 45.125C46.9189 43.8501 45.3259 42.9892 43.5319 42.7935C43.5251 42.7927 43.5184 42.7916 43.5116 42.791C43.4028 42.7794 43.2932 42.7709 43.183 42.7644C43.1651 42.7632 43.1474 42.7612 43.1295 42.7604C43.0038 42.7537 42.8774 42.75 42.75 42.75C42.6226 42.75 42.4962 42.7537 42.3705 42.7602C42.3526 42.7612 42.335 42.7632 42.317 42.7642C42.2068 42.7708 42.0972 42.7794 41.9884 42.7909C41.9816 42.7916 41.9748 42.7926 41.968 42.7934C40.1741 42.9892 38.5811 43.85 37.44 45.1249H33.25V35.625V23.75H35.625V33.2499C35.625 34.5616 36.6883 35.6249 38 35.6249H52.25V45.1249H48.06V45.125Z" fill="#40BBAA"/>
</svg>
