<svg width="14" height="23" viewBox="0 0 14 23" fill="none" xmlns="http://www.w3.org/2000/svg">
<path d="M9.71569 5.69316C9.74853 5.65771 9.90209 5.5419 10.5051 5.5419L12.4823 5.54119C13.1255 5.54119 13.6486 5.04074 13.6486 4.42552V1.12024C13.6486 0.506074 13.1262 0.00561525 12.4841 0.00456236L9.54727 0C7.73465 0 6.19374 0.571878 5.09112 1.65404C3.99346 2.73129 3.41316 4.23512 3.41316 6.0027V7.78536H1.16647C0.52324 7.78536 0 8.28582 0 8.90104V12.4608C0 13.076 0.52324 13.5764 1.16647 13.5764H3.41316V21.8844C3.41316 22.4996 3.9364 23 4.57963 23H8.43053C9.07375 23 9.59699 22.4996 9.59699 21.8844V13.5766H12.3432C12.9864 13.5766 13.5095 13.076 13.5095 12.4611L13.511 8.90122C13.511 8.49709 13.2811 8.12315 12.9109 7.92539C12.7393 7.83379 12.5397 7.78536 12.3339 7.78536H9.59699V6.37699C9.59699 5.91794 9.66157 5.75177 9.71569 5.69316Z" fill="#95CA6A"/>
</svg>
