<svg width="44" height="30" viewBox="0 0 44 30" fill="none" xmlns="http://www.w3.org/2000/svg">
<path d="M43.2898 10.1641L38.8708 1.70147C38.6072 1.20221 38.1592 0.82556 37.6221 0.651734C37.0849 0.477909 36.5012 0.520643 35.9951 0.770837L31.6601 2.93823H28.3913L22.3207 0.191503C21.8518 -0.0203498 21.3226 -0.0577807 20.8285 0.085953L11.8122 2.71449L7.53952 0.578252C7.03343 0.328147 6.4497 0.28545 5.9126 0.45925C5.3755 0.63305 4.92745 1.00962 4.66382 1.5088L0.244805 9.97157C0.112295 10.2254 0.0316646 10.5031 0.00761787 10.7884C-0.0164289 11.0737 0.0165899 11.361 0.104748 11.6334C0.192905 11.9058 0.334437 12.158 0.521083 12.3751C0.707729 12.5923 0.935752 12.7701 1.19185 12.8982L5.56901 15.0867L15.334 22.7225C15.5717 22.9089 15.8461 23.043 16.1392 23.1159L26.5534 25.7194C26.7228 25.7616 26.8968 25.783 27.0714 25.7829C27.6446 25.7831 28.1945 25.5564 28.601 25.1523L35.213 18.5402C35.2263 18.527 35.2389 18.5132 35.2512 18.499L38.0316 15.2463L42.3427 13.0908C42.5988 12.9627 42.8269 12.7849 43.0135 12.5677C43.2002 12.3506 43.3417 12.0984 43.4298 11.826C43.518 11.5535 43.551 11.2663 43.527 10.9809C43.5029 10.6956 43.4223 10.4179 43.2898 10.1641ZM34.5902 17.0599L27.2213 11.7007C27.097 11.6103 26.9469 11.5622 26.7932 11.5633C26.6395 11.5644 26.4902 11.6147 26.3672 11.7069L24.0673 13.432C23.1947 14.0812 22.1361 14.4318 21.0486 14.4318C19.961 14.4318 18.9024 14.0812 18.0298 13.432L17.0558 12.7015C16.9734 12.6397 16.9053 12.5609 16.856 12.4705C16.8067 12.3801 16.7774 12.2802 16.7701 12.1775C16.7628 12.0748 16.7776 11.9717 16.8136 11.8752C16.8496 11.7787 16.9059 11.6911 16.9787 11.6183L24.0108 4.5863C24.1458 4.45197 24.3284 4.37631 24.5189 4.37573H28.234L28.2357 4.37591L28.2382 4.37573H31.3943L36.7179 14.5708L34.5902 17.0599ZM1.47244 11.1909C1.44273 11.1001 1.43156 11.0043 1.43958 10.9091C1.4476 10.814 1.47464 10.7214 1.51911 10.6369L5.93813 2.17412C5.99953 2.05765 6.09161 1.9602 6.20441 1.89229C6.31721 1.82439 6.44643 1.78862 6.57809 1.78887C6.68865 1.78877 6.79771 1.81449 6.89658 1.86398L10.7291 3.78018L5.64455 13.5173L1.83479 11.6124C1.74925 11.57 1.67309 11.5108 1.61085 11.4384C1.5486 11.366 1.50154 11.2818 1.47244 11.1909ZM27.5847 24.1357C27.4967 24.2233 27.3877 24.2867 27.2681 24.3198C27.1485 24.3529 27.0224 24.3546 26.9019 24.3247L16.4878 21.7212C16.3901 21.6969 16.2986 21.6522 16.2194 21.5901L6.86886 14.2784L12.1816 4.10416L21.2307 1.46608C21.3954 1.41804 21.5718 1.43049 21.7282 1.50117L24.904 2.93823H24.5189C24.2357 2.93746 23.9551 2.99288 23.6934 3.10128C23.4317 3.20969 23.1941 3.36892 22.9944 3.56977L15.9624 10.6018C15.7439 10.8202 15.5749 11.083 15.4669 11.3725C15.3588 11.6619 15.3142 11.9712 15.3361 12.2793C15.358 12.5875 15.4458 12.8873 15.5937 13.1586C15.7415 13.4298 15.946 13.6662 16.1931 13.8515L17.1672 14.582C18.2891 15.4167 19.6502 15.8674 21.0485 15.8674C22.4469 15.8674 23.808 15.4167 24.9299 14.582L26.805 13.1755L33.6018 18.1185L27.5847 24.1357ZM42.0622 11.3834C42.0331 11.4744 41.986 11.5586 41.9237 11.631C41.8615 11.7034 41.7853 11.7626 41.6998 11.805L37.89 13.7099L32.8054 3.97275L36.638 2.05655C36.8067 1.9731 37.0013 1.95883 37.1803 2.01679C37.3594 2.07474 37.5087 2.20033 37.5965 2.36679L42.0155 10.8294C42.06 10.9139 42.087 11.0065 42.095 11.1017C42.103 11.1969 42.0919 11.2927 42.0622 11.3834ZM19.5896 28.9875C19.5668 29.0791 19.5262 29.1653 19.47 29.2412C19.4139 29.3171 19.3433 29.3812 19.2623 29.4298C19.1814 29.4784 19.0916 29.5105 18.9982 29.5244C18.9048 29.5382 18.8096 29.5335 18.718 29.5106L13.3023 28.1568C12.9728 28.0739 12.6673 27.9147 12.4106 27.6921L8.35829 24.1696C8.2868 24.1078 8.2282 24.0324 8.18586 23.9479C8.14353 23.8634 8.11828 23.7713 8.11157 23.6771C8.10486 23.5828 8.11681 23.4881 8.14675 23.3984C8.17669 23.3087 8.22402 23.2259 8.28604 23.1545C8.34806 23.0832 8.42354 23.0248 8.50817 22.9827C8.59279 22.9405 8.6849 22.9155 8.7792 22.909C8.87351 22.9026 8.96817 22.9147 9.05776 22.9449C9.14735 22.9751 9.23011 23.0226 9.30129 23.0848L13.3537 26.6073C13.4395 26.6815 13.5414 26.7346 13.6514 26.7623L19.0665 28.1159C19.2515 28.1621 19.4105 28.2799 19.5085 28.4434C19.6066 28.6068 19.6358 28.8025 19.5896 28.9875Z" fill="#77BB40"/>
</svg>
