<svg width="24" height="23" viewBox="0 0 24 23" fill="none" xmlns="http://www.w3.org/2000/svg">
<path d="M17.5034 0H6.49657C2.9143 0 0 2.79287 0 6.22588V16.7743C0 20.2071 2.9143 23 6.49657 23H17.5036C21.0857 23 24 20.2071 24 16.7743V6.22588C24 2.79287 21.0857 0 17.5034 0V0ZM12 17.7889C8.38145 17.7889 5.43767 14.9677 5.43767 11.5C5.43767 8.03223 8.38145 5.2111 12 5.2111C15.6185 5.2111 18.5623 8.03223 18.5623 11.5C18.5623 14.9677 15.6185 17.7889 12 17.7889V17.7889ZM18.7192 6.69422C17.6499 6.69422 16.7801 5.86071 16.7801 4.83594C16.7801 3.81116 17.6499 2.97747 18.7192 2.97747C19.7885 2.97747 20.6585 3.81116 20.6585 4.83594C20.6585 5.86071 19.7885 6.69422 18.7192 6.69422Z" fill="#95CA6A"/>
<path d="M12 6.55957C9.15753 6.55957 6.84473 8.77583 6.84473 11.5001C6.84473 14.2242 9.15753 16.4406 12 16.4406C14.8428 16.4406 17.1554 14.2242 17.1554 11.5001C17.1554 8.77583 14.8428 6.55957 12 6.55957V6.55957Z" fill="#95CA6A"/>
<path d="M18.7196 4.32617C18.4263 4.32617 18.1875 4.55499 18.1875 4.8361C18.1875 5.11722 18.4263 5.34604 18.7196 5.34604C19.0131 5.34604 19.2519 5.11739 19.2519 4.8361C19.2519 4.55482 19.0131 4.32617 18.7196 4.32617Z" fill="#95CA6A"/>
</svg>
