<svg width="20" height="20" viewBox="0 0 20 20" fill="none" xmlns="http://www.w3.org/2000/svg">
<path d="M9.99999 0C5.94035 0 2.63721 3.30314 2.63721 7.3632C2.63721 8.42222 2.85396 9.43334 3.28113 10.3687C5.12203 14.3971 8.65155 18.6501 9.6897 19.8575C9.76748 19.9478 9.88087 19.9998 10.0002 19.9998C10.1195 19.9998 10.2329 19.9478 10.3107 19.8575C11.3484 18.6503 14.878 14.3975 16.7195 10.3687C17.1468 9.43334 17.3634 8.42222 17.3634 7.3632C17.363 3.30314 14.0598 0 9.99999 0ZM9.99999 11.1877C7.89116 11.1877 6.17532 9.47182 6.17532 7.36299C6.17532 5.25396 7.89116 3.53812 9.99999 3.53812C12.1088 3.53812 13.8247 5.25396 13.8247 7.36299C13.8249 9.47182 12.109 11.1877 9.99999 11.1877Z" fill="#95CA6A"/>
</svg>
