<svg width="20" height="20" viewBox="0 0 20 20" fill="none" xmlns="http://www.w3.org/2000/svg">
<g clip-path="url(#clip0)">
<path d="M18.214 17.857C18.6636 17.857 19.0532 17.7086 19.3843 17.4155L13.718 11.749C13.5821 11.8463 13.4503 11.941 13.3258 12.031C12.9018 12.3434 12.5576 12.5872 12.2933 12.7619C12.0291 12.937 11.6775 13.1155 11.2387 13.2977C10.7995 13.4801 10.3904 13.571 10.0109 13.571H9.99978H9.98867C9.60911 13.571 9.19999 13.4801 8.76088 13.2977C8.32177 13.1155 7.9702 12.937 7.70622 12.7619C7.44198 12.5872 7.09801 12.3434 6.67375 12.031C6.55552 11.9443 6.4244 11.8492 6.28264 11.7474L0.615234 17.4155C0.946356 17.7086 1.33616 17.857 1.78569 17.857H18.214V17.857Z" fill="#95CA6A"/>
<path d="M1.12735 8.18082C0.703347 7.89814 0.327345 7.57439 0 7.20972V15.8309L4.99427 10.8366C3.99513 10.1391 2.7078 9.25483 1.12735 8.18082Z" fill="#95CA6A"/>
<path d="M18.884 8.18082C17.3639 9.20973 16.0718 10.0955 15.0078 10.8386L20.0001 15.8311V7.20972C19.68 7.56705 19.308 7.89059 18.884 8.18082Z" fill="#95CA6A"/>
<path d="M18.2144 2.1427H1.78609C1.21295 2.1427 0.772318 2.33624 0.463637 2.72292C0.154702 3.10977 0.000488281 3.59358 0.000488281 4.1738C0.000488281 4.64247 0.205138 5.15028 0.614256 5.69738C1.02337 6.24426 1.45871 6.67382 1.92004 6.98628C2.17295 7.16497 2.93563 7.69518 4.20808 8.57674C4.89498 9.05275 5.49233 9.46764 6.00566 9.82567C6.44321 10.1305 6.82056 10.3946 7.13211 10.6137C7.16787 10.6387 7.22412 10.679 7.29878 10.7324C7.3792 10.7901 7.48098 10.8634 7.60655 10.9541C7.84834 11.129 8.04922 11.2703 8.2092 11.3783C8.36897 11.4864 8.56255 11.607 8.78964 11.741C9.01655 11.8748 9.23056 11.9754 9.43144 12.0424C9.63235 12.1092 9.81833 12.1428 9.98943 12.1428H10.0005H10.0117C10.1827 12.1428 10.3687 12.1092 10.5697 12.0424C10.7705 11.9754 10.9844 11.875 11.2114 11.741C11.4383 11.607 11.6316 11.4861 11.7919 11.3783C11.9519 11.2703 12.1528 11.129 12.3946 10.9541C12.5199 10.8634 12.6217 10.7901 12.7021 10.7325C12.7768 10.6789 12.833 10.639 12.869 10.6137C13.1117 10.4448 13.4899 10.1818 13.9984 9.82875C14.9237 9.18586 16.2864 8.23963 18.0922 6.98628C18.6353 6.60694 19.0891 6.14916 19.4538 5.61361C19.8178 5.07806 20.0003 4.51629 20.0003 3.92848C20.0003 3.43737 19.8233 3.01715 19.4702 2.66714C19.1167 2.31757 18.698 2.1427 18.2144 2.1427Z" fill="#95CA6A"/>
</g>
<defs>
<clipPath id="clip0">
<rect width="20" height="20" fill="white"/>
</clipPath>
</defs>
</svg>
