<svg width="53" height="53" viewBox="0 0 53 53" fill="none" xmlns="http://www.w3.org/2000/svg">
<g clip-path="url(#clip0)">
<path d="M43.9379 28.7456V48.2266C43.9379 49.0721 43.2501 49.76 42.4045 49.76H41.2231C40.8023 49.76 40.4613 50.101 40.4613 50.5218C40.4613 50.9426 40.8023 51.2836 41.2231 51.2836H42.4045C44.0902 51.2836 45.4615 49.9122 45.4615 48.2266V30.3317L47.0122 31.9458C47.7125 32.6748 48.8749 32.6872 49.5904 31.9716L51.6562 29.9057C52.3462 29.2159 52.3575 28.0823 51.6816 27.3787L28.2353 2.97181C27.1144 1.80499 25.2488 1.80397 24.127 2.97181L0.68065 27.3787C0.00485605 28.0822 0.0162327 29.2158 0.706045 29.9057L2.77203 31.9716C3.48693 32.6863 4.64908 32.6756 5.35026 31.9458L6.90074 30.3319V34.0325C6.90074 34.4534 7.24184 34.7944 7.66257 34.7944C8.0833 34.7944 8.4244 34.4534 8.4244 34.0325V28.7457L25.6019 10.8643C25.9179 10.5355 26.4432 10.5345 26.7603 10.8643C40.4505 25.1153 37.7402 22.2941 43.9379 28.7456V28.7456ZM50.5788 28.8281L48.5128 30.8942C48.3777 31.0054 48.2438 31.0041 48.1109 30.8901L27.8592 9.80888C27.8591 9.80878 27.8591 9.80878 27.859 9.80868C27.858 9.80756 27.8569 9.80665 27.8559 9.80553C26.9393 8.85497 25.419 8.85537 24.5032 9.80878L7.11314 27.9112C7.11273 27.9116 7.11243 27.9121 7.11202 27.9125L4.2515 30.8901C4.11864 31.0041 3.98456 31.0054 3.84946 30.8941L1.78348 28.8281C1.67591 28.7206 1.67418 28.5438 1.77951 28.4342L25.2258 4.0273C25.7478 3.48396 26.6148 3.48406 27.1366 4.0274L50.5828 28.4341C50.6882 28.5438 50.6865 28.7207 50.5788 28.8281V28.8281Z" fill="#40bbaa"/>
<path d="M37.6529 49.7598H33.1334V41.134C33.1334 37.3006 30.0147 34.182 26.1813 34.182C22.348 34.182 19.2292 37.3006 19.2292 41.134V49.7598H9.95795C9.11242 49.7598 8.42454 49.072 8.42454 48.2264V37.5876C8.42454 37.1668 8.08344 36.8258 7.66271 36.8258C7.24198 36.8258 6.90088 37.1668 6.90088 37.5876V48.2264C6.90088 49.9121 8.27228 51.2835 9.95795 51.2835H37.6529C38.0738 51.2835 38.4147 50.9425 38.4147 50.5217C38.4147 50.1008 38.0738 49.7598 37.6529 49.7598ZM20.7529 41.1341C20.7529 38.1409 23.1881 35.7058 26.1813 35.7058C29.1745 35.7058 31.6097 38.141 31.6097 41.1341V49.7599H20.7529V41.1341Z" fill="#40bbaa"/>
</g>
<defs>
<clipPath id="clip0">
<rect width="52" height="52" fill="white" transform="translate(0.181152 0.689941)"/>
</clipPath>
</defs>
</svg>
