<svg width="63" height="64" viewBox="0 0 63 64" fill="none" xmlns="http://www.w3.org/2000/svg">
<g clip-path="url(#clip0)">
<path d="M15.2983 21.7631L16.7981 22.1538L18.3329 21.0027C18.5597 20.8318 18.8491 20.7795 19.1211 20.8492L21.3046 21.4212L22.8392 20.2701C23.0904 20.0818 23.3729 20.0504 23.666 20.1271L25.8145 20.6887L27.3491 19.5377C27.6037 19.3457 27.8828 19.3179 28.1828 19.3947L30.321 19.9563L31.8592 18.8052C32.0999 18.6238 32.3824 18.5821 32.6683 18.6588L34.8309 19.2238L36.3655 18.0728C36.6167 17.8844 36.8994 17.853 37.1924 17.9298L39.3409 18.4913L40.8757 17.3403C41.1303 17.1485 41.4093 17.1205 41.7058 17.1973L43.8474 17.7589L45.382 16.6078C45.6298 16.423 45.9088 16.3882 46.2018 16.4614L48.3574 17.0265L49.8922 15.8754C50.1538 15.68 50.4293 15.6557 50.7328 15.7359L52.8639 16.294L54.4021 15.1429C54.6567 14.951 54.9358 14.9232 55.2356 15.0034L57.3738 15.5614L58.9086 14.4104C59.1632 14.2221 59.4597 14.1907 59.7527 14.2708L61.1549 14.651V7.56005H39.9584C39.4491 7.56005 39.0376 7.14846 39.0376 6.63929C39.0376 6.13 39.4492 5.71497 39.9584 5.71497H61.3606C62.3338 5.71497 63 6.38114 63 7.3542V15.8578C63 16.4578 62.4244 16.9078 61.835 16.7475L59.6481 16.1545L58.1483 17.2777C57.9286 17.4555 57.6322 17.5288 57.339 17.452L55.1486 16.88L53.6383 18.0102C53.4186 18.1881 53.1222 18.2613 52.8292 18.1845L50.6387 17.6126L49.1319 18.7427C48.9122 18.9205 48.6157 18.9938 48.3227 18.917L46.1321 18.3451L44.622 19.4752C44.4022 19.6531 44.1058 19.7263 43.8127 19.6497L41.6223 19.0775L40.112 20.2077C39.8959 20.3855 39.5993 20.4588 39.3063 20.382L37.1124 19.8101L35.6055 20.9402C35.3858 21.118 35.0893 21.1913 34.7963 21.1145L32.6059 20.5425L31.0957 21.6727C30.8759 21.8506 30.5795 21.9238 30.2865 21.847L28.096 21.2751L26.5892 22.4053C26.3694 22.5831 26.073 22.6564 25.7799 22.5796L23.5894 22.0077L22.0792 23.1378C21.8594 23.3157 21.563 23.3889 21.2699 23.3123L19.0795 22.7403L17.5691 23.8704C17.3529 24.0482 17.0564 24.1216 16.7634 24.0449L15.1554 23.6263C14.9427 24.4808 14.4997 25.2483 13.8929 25.8516C13.0278 26.7167 11.8313 27.2574 10.513 27.2574H2.85333C2.06854 27.2574 1.35352 26.9365 0.837334 26.4202C0.320906 25.8998 0 25.1882 0 24.4035V8.56818C0 7.78326 0.320906 7.06824 0.837211 6.55205C1.35339 6.03587 2.06842 5.71497 2.85321 5.71497H14.374H16.7877H35.7797C36.289 5.71497 36.7006 6.13 36.7006 6.63929C36.7006 7.14859 36.2889 7.56005 35.7797 7.56005H20.349C20.8547 8.2752 21.1547 9.14354 21.1547 10.0818C21.1547 11.2816 20.663 12.3734 19.8712 13.1652C19.083 13.957 17.9912 14.4488 16.7878 14.4488H15.2984V21.7631H15.2983ZM54.8624 11.1456C54.3497 11.1456 53.9381 10.7306 53.9381 10.2213C53.9381 9.71202 54.3497 9.29698 54.8624 9.29698H57.7785C58.2878 9.29698 58.7028 9.71202 58.7028 10.2213C58.7028 10.7306 58.2878 11.1456 57.7785 11.1456H54.8624ZM30.8896 33.2351C30.3803 33.2351 29.9652 32.8235 29.9652 32.3144C29.9652 31.8016 30.3803 31.3901 30.8896 31.3901H38.6295C39.1388 31.3901 39.5538 31.8016 39.5538 32.3144C39.5538 32.8237 39.1388 33.2351 38.6295 33.2351H30.8896ZM47.4821 49.6844C46.9693 49.6844 46.5576 49.2694 46.5576 48.7601C46.5576 48.2508 46.9693 47.8358 47.4821 47.8358H58.1238C58.6331 47.8358 59.0445 48.2508 59.0445 48.7601C59.0445 49.2694 58.6329 49.6844 58.1238 49.6844H47.4821ZM41.8557 53.9224C41.3466 53.9224 40.9314 53.5108 40.9314 53.0016C40.9314 52.4925 41.3466 52.0773 41.8557 52.0773H46.9414C47.454 52.0773 47.8657 52.4923 47.8657 53.0016C47.8657 53.5109 47.454 53.9224 46.9414 53.9224H41.8557ZM34.831 37.5359C34.3217 37.5359 33.9102 37.1242 33.9102 36.6114C33.9102 36.1021 34.3218 35.6907 34.831 35.6907H47.8762C48.3855 35.6907 48.7969 36.1023 48.7969 36.6114C48.7969 37.1242 48.3854 37.5359 47.8762 37.5359H34.831ZM21.0395 44.8186H18.4271C17.3946 44.8186 16.404 44.6337 15.4867 44.2989C16.4494 45.6767 17.0144 47.351 17.0144 49.1612C17.0144 51.5086 16.0622 53.6362 14.5205 55.1744C14.2937 55.4046 14.0496 55.6175 13.7985 55.8197H23.0626C22.8115 55.6175 22.5673 55.4046 22.3406 55.1744C20.8024 53.6362 19.8502 51.5086 19.8502 49.1612C19.8502 47.5743 20.2827 46.0918 21.0395 44.8186ZM18.4341 27.8078H44.566C45.5985 27.8078 46.589 27.9927 47.51 28.331C48.4621 28.6833 49.3342 29.1996 50.0912 29.8483C50.4784 30.1796 50.5237 30.7586 50.1922 31.1458C49.8644 31.5329 49.2819 31.5783 48.8946 31.2469C48.3052 30.7412 47.6216 30.3366 46.8751 30.0609C46.1602 29.7959 45.3821 29.6529 44.566 29.6529H23.7183C23.9729 29.8553 24.2135 30.068 24.4438 30.2981C25.982 31.8363 26.9341 33.9641 26.9341 36.3113C26.9341 38.1218 26.3691 39.7994 25.4064 41.1806C26.3761 40.8213 27.3248 40.6645 28.3537 40.654H49.6236C50.0945 40.1064 50.4747 39.482 50.7502 38.8055C51.0571 38.0382 51.2281 37.1976 51.2281 36.3113C51.2281 35.9451 51.2 35.5999 51.1513 35.2789C51.099 34.9371 51.0188 34.6023 50.9141 34.2744C50.7572 33.793 51.0257 33.2733 51.5071 33.1198C51.9917 32.963 52.5115 33.228 52.6649 33.7128C52.7976 34.1244 52.8986 34.5533 52.9685 34.9964C53.0381 35.4394 53.0732 35.8788 53.0732 36.3113C53.0732 37.4312 52.8534 38.5054 52.4557 39.489C52.2953 39.8936 52.0999 40.2842 51.8803 40.654H54.4962C55.1659 40.654 55.8217 40.7308 56.4529 40.8808C57.1016 41.0342 57.726 41.2643 58.3086 41.5574C58.7655 41.7875 58.947 42.3422 58.7166 42.7955C58.4898 43.2491 57.9353 43.4303 57.4817 43.2037C57.0283 42.9734 56.5435 42.7955 56.0342 42.6769C55.5425 42.5617 55.0263 42.4991 54.4961 42.4991H33.6452C33.8997 42.7015 34.1403 42.9176 34.3707 43.1443C35.9089 44.6826 36.8612 46.8102 36.8612 49.1611C36.8612 51.5085 35.9089 53.6361 34.3707 55.1743C34.1405 55.4045 33.8998 55.6174 33.6452 55.8195H54.4964C56.3345 55.8195 57.9983 55.0733 59.2052 53.8697C60.4085 52.6629 61.155 50.9992 61.155 49.161C61.155 48.5226 61.0678 47.9124 60.9039 47.3368C60.7364 46.7368 60.4853 46.1752 60.1678 45.6589C59.8992 45.23 60.0353 44.6615 60.4678 44.3962C60.8969 44.1277 61.4654 44.2638 61.7305 44.6928C62.1421 45.3555 62.463 46.0775 62.6792 46.838C62.8885 47.5809 63.0001 48.3587 63.0001 49.161C63.0001 51.5083 62.0479 53.6359 60.5098 55.1741C58.9716 56.7124 56.8437 57.6645 54.4965 57.6645H8.50721C6.15628 57.6645 4.03212 56.7124 2.49047 55.1741C0.95226 53.6362 0 51.5086 0 49.1612C0 46.8103 0.95226 44.6827 2.49047 43.1445C4.03212 41.6063 6.15628 40.6541 8.50721 40.6541H11.1092C10.3557 39.3845 9.91979 37.8986 9.91979 36.3114C9.91979 33.9642 10.8721 31.8365 12.4137 30.2983C13.9973 28.7112 16.1842 27.7939 18.4341 27.8078V27.8078ZM4.50302 51.5646C4.24143 51.1285 4.38441 50.5635 4.82036 50.3019C5.25632 50.0403 5.82147 50.1832 6.08307 50.6192C6.4842 51.2854 7.119 51.7285 7.82012 51.9028C8.52481 52.0806 9.29558 51.9866 9.96532 51.5855C10.6349 51.1844 11.0745 50.5496 11.2524 49.8486C11.4269 49.1439 11.3326 48.3731 10.9315 47.6999C10.5304 47.0336 9.89555 46.5905 9.19455 46.4162C8.48999 46.2418 7.7191 46.3324 7.04936 46.7371C6.6134 46.9952 6.04837 46.8556 5.78665 46.4196C5.52505 45.9837 5.66815 45.4186 6.10411 45.1569C7.20981 44.4943 8.47596 44.3407 9.63395 44.6267C10.7954 44.9163 11.8454 45.6487 12.5115 46.7579C13.1744 47.8601 13.3278 49.1297 13.0383 50.2878C12.7486 51.4458 12.0163 52.4992 10.9106 53.1618C9.80487 53.828 8.53884 53.9815 7.38072 53.6921C6.21904 53.4026 5.1692 52.6701 4.50302 51.5646V51.5646ZM30.2549 44.8954C30.7188 45.1012 30.9281 45.6453 30.7188 46.1092C30.513 46.5731 29.9688 46.7824 29.505 46.573C28.7899 46.2557 28.0156 46.2592 27.3389 46.5173C26.6657 46.7755 26.0902 47.2951 25.7693 48.0102C25.4519 48.7253 25.4519 49.4996 25.7135 50.1764C25.9716 50.8495 26.4913 51.425 27.2063 51.7459C27.9179 52.0634 28.6956 52.0598 29.3724 51.8017C30.0456 51.5435 30.621 51.024 30.9384 50.3089C31.1476 49.8449 31.6917 49.6393 32.1557 49.8449C32.6197 50.0507 32.8253 50.5948 32.6197 51.0587C32.0965 52.2342 31.1443 53.0886 30.0281 53.5177C28.912 53.9466 27.6318 53.9502 26.4563 53.4234C25.2774 52.9002 24.4264 51.9481 23.9973 50.8319C23.5683 49.7158 23.5648 48.4357 24.0915 47.2603C24.6147 46.0848 25.5669 45.2302 26.683 44.8013C27.7992 44.3722 29.0794 44.3722 30.2549 44.8954V44.8954ZM23.1009 36.3114C23.1009 36.8243 22.6859 37.236 22.1766 37.236C21.6673 37.236 21.2523 36.8243 21.2523 36.3114C21.2523 35.5338 20.9384 34.8256 20.4257 34.3129C19.9164 33.8036 19.2084 33.4863 18.4271 33.4863C17.6458 33.4863 16.9411 33.8036 16.4285 34.3129C15.9192 34.8256 15.6019 35.5338 15.6019 36.3114C15.6019 37.0928 15.9193 37.8009 16.4285 38.3102C16.9412 38.8229 17.6458 39.1403 18.4271 39.1403C18.9363 39.1403 19.3515 39.5519 19.3515 40.061C19.3515 40.5703 18.9363 40.9854 18.4271 40.9854C17.1365 40.9854 15.968 40.4622 15.1239 39.6182C14.2798 38.7705 13.7566 37.6021 13.7566 36.3114C13.7566 35.0245 14.2798 33.856 15.1239 33.0084C15.968 32.1644 17.1365 31.6412 18.4271 31.6412C19.7176 31.6412 20.8861 32.1644 21.7302 33.0084C22.5777 33.8559 23.1009 35.0245 23.1009 36.3114ZM18.4271 42.9736C20.2652 42.9736 21.9325 42.2272 23.1359 41.0238C24.3427 39.8168 25.0891 38.1532 25.0891 36.3113C25.0891 34.4732 24.3427 32.8095 23.1359 31.6026C21.9325 30.3993 20.2688 29.6528 18.4341 29.6528C16.6551 29.6528 14.9739 30.347 13.7184 31.6026C12.5114 32.8095 11.7686 34.4732 11.7686 36.3113C11.7686 38.1532 12.5115 39.8168 13.7184 41.0238C14.9216 42.2272 16.5888 42.9736 18.4271 42.9736V42.9736ZM28.3538 55.8198C30.1955 55.8198 31.8593 55.0735 33.066 53.87C34.2693 52.6631 35.0158 50.9994 35.0158 49.1612C35.0158 47.3195 34.2694 45.6557 33.066 44.4489C31.8592 43.2456 30.1955 42.4991 28.3538 42.4991C26.5157 42.4991 24.8519 43.2455 23.6451 44.4489C22.4381 45.6557 21.6953 47.3195 21.6953 49.1612C21.6953 50.9993 22.4382 52.6631 23.6451 53.87C24.8519 55.0734 26.5157 55.8198 28.3538 55.8198V55.8198ZM8.50721 55.8198C10.3453 55.8198 12.0126 55.0735 13.2161 53.87C14.4229 52.6631 15.1658 50.9994 15.1658 49.1612C15.1658 47.3195 14.4228 45.6557 13.2161 44.4489C12.0127 43.2456 10.3454 42.4991 8.50721 42.4991C6.66902 42.4991 5.00173 43.2455 3.79846 44.4489C2.59161 45.6557 1.84509 47.3195 1.84509 49.1612C1.84509 50.9993 2.59149 52.6631 3.79846 53.87C5.00173 55.0734 6.66902 55.8198 8.50721 55.8198V55.8198ZM13.8334 13.1023C14.123 12.7745 14.5206 12.6001 15.0926 12.6001H16.7877C17.4818 12.6001 18.1095 12.3177 18.5665 11.8607C19.0234 11.4037 19.3095 10.7723 19.3095 10.0818C19.3095 9.38767 19.0234 8.75988 18.5665 8.30301C18.1095 7.84601 17.4818 7.56005 16.7877 7.56005H14.374H2.85321C2.57771 7.56005 2.32645 7.67523 2.14163 7.85647C1.96014 8.04129 1.84509 8.29243 1.84509 8.56805V24.4033C1.84509 24.6788 1.96014 24.93 2.14163 25.1115C2.32645 25.2963 2.57759 25.4114 2.85321 25.4114H10.5129C11.322 25.4114 12.0545 25.0801 12.5882 24.5464C13.1218 24.0128 13.4532 23.277 13.4532 22.4711V14.2395C13.4532 13.7966 13.5508 13.4199 13.8334 13.1023V13.1023ZM6.38306 12.785V20.1865C6.38306 20.8806 6.95166 21.4525 7.64921 21.4525C7.99805 21.4525 8.31194 21.3096 8.54216 21.0795C8.77238 20.8492 8.91536 20.5319 8.91536 20.1865V12.785C8.91536 12.4362 8.77226 12.1223 8.54216 11.892C8.31194 11.6618 7.99805 11.5188 7.64921 11.5188C7.30394 11.5188 6.98648 11.6618 6.75626 11.892C6.52604 12.1224 6.38306 12.4362 6.38306 12.785V12.785ZM4.53785 20.1866V12.785C4.53785 11.9269 4.88668 11.1492 5.45171 10.5876C6.0133 10.0226 6.79108 9.67375 7.64909 9.67375C8.50722 9.67375 9.28499 10.0226 9.84658 10.5876C10.4116 11.1492 10.7604 11.927 10.7604 12.785V20.1865C10.7604 21.0445 10.4116 21.8224 9.84658 22.3839C9.28499 22.9489 8.50722 23.2977 7.64909 23.2977C5.93664 23.2979 4.53785 21.8992 4.53785 20.1866V20.1866Z" fill="#40bbaa"/>
</g>
<defs>
<clipPath id="clip0">
<rect width="63" height="63" fill="white" transform="translate(0 0.189941)"/>
</clipPath>
</defs>
</svg>
