<svg width="60" height="62" viewBox="0 0 60 62" fill="none" xmlns="http://www.w3.org/2000/svg">
<path d="M57.2465 9.52717L46.8049 5.10455C45.6595 4.61953 44.3458 4.61965 43.2005 5.10467L38.1872 7.22764C37.7391 7.41755 37.5271 7.94057 37.7138 8.39617C37.9005 8.85176 38.4149 9.06741 38.8632 8.8775L43.8765 6.75441C44.5919 6.45132 45.413 6.4512 46.129 6.75429L56.5701 11.1767C57.5856 11.6074 58.242 12.5759 58.242 13.6437V51.8581C58.242 53.3441 56.9866 54.553 55.4436 54.553H54.0186C53.5331 54.553 53.1397 54.953 53.1397 55.4466C53.1397 55.9402 53.5331 56.3401 54.0186 56.3401H55.4436C57.9558 56.3401 59.9998 54.3295 59.9998 51.8581V13.6437C59.9998 11.8523 58.9191 10.2365 57.2465 9.52717V9.52717Z" fill="#40bbaa"/>
<path d="M50.1879 54.5532H35.4199C36.028 53.8505 36.3609 52.959 36.3609 52.0155C36.3609 51.074 36.0257 50.211 35.4709 49.5419C35.8207 49.3605 36.1446 49.123 36.4305 48.8324C37.1445 48.1065 37.5375 47.1414 37.5375 46.1145C37.5375 45.1356 37.1752 44.2416 36.5804 43.5623C36.8749 43.3927 37.1491 43.1826 37.3948 42.9326C38.1087 42.2069 38.5018 41.2418 38.5018 40.2146C38.5018 39.2386 38.1417 38.3469 37.5504 37.6681C37.8498 37.4973 38.1287 37.2845 38.3788 37.0308C39.0922 36.3038 39.485 35.3389 39.485 34.3135C39.485 32.1935 37.7891 30.4688 35.7045 30.4688H31.7634V13.6438C31.7634 12.5758 32.4198 11.6073 33.4349 11.1769L35.0334 10.5001C35.4816 10.3105 35.6936 9.78743 35.507 9.33172C35.3203 8.87613 34.8059 8.66024 34.3577 8.85027L32.7586 9.52723C31.0862 10.2365 30.0056 11.8524 30.0056 13.6438V30.4689H26.3333C27.5562 26.5402 27.4521 22.4399 26.025 17.6811C25.8082 16.9604 25.377 16.3431 24.7775 15.896C24.1816 15.4516 23.4755 15.2166 22.7352 15.2166C21.7815 15.2166 20.8948 15.6038 20.238 16.3068C19.5817 17.0097 19.2475 17.93 19.2969 18.8979C19.5717 24.2708 17.134 26.1201 13.76 28.6798C12.6492 29.5225 11.4352 30.4442 10.242 31.5744V30.4033C10.242 29.9097 9.84856 29.5097 9.36305 29.5097H0.878906C0.393398 29.5097 0 29.9097 0 30.4033V55.7457C0 56.2393 0.393398 56.6393 0.878906 56.6393H9.36328C9.84879 56.6393 10.2422 56.2393 10.2422 55.7457V53.4977C11.9115 53.6592 13.1307 53.9974 14.3153 54.9204C15.0929 55.5264 16.0515 55.8601 17.0145 55.8601H32.515C33.1482 56.1739 33.8503 56.3402 34.562 56.3402H50.1878C50.6733 56.3402 51.0667 55.9403 51.0667 55.4467C51.0667 54.9531 50.6733 54.5532 50.1879 54.5532V54.5532ZM15.3846 53.5019C13.7273 52.2108 11.9562 51.8521 10.2422 51.7016V41.2678C10.2422 40.7742 9.84879 40.3743 9.36328 40.3743C8.87777 40.3743 8.48438 40.7742 8.48438 41.2678V54.8523H1.75781V31.297H8.48438V37.3744C8.48438 37.868 8.87777 38.268 9.36328 38.268C9.84879 38.268 10.2422 37.868 10.2422 37.3744V34.113C11.7124 32.4635 13.2867 31.2691 14.8116 30.1122C18.1876 27.5511 21.3763 25.1318 21.0527 18.8052C21.0285 18.3316 21.192 17.8814 21.5133 17.5374C21.8346 17.1932 22.2687 17.0038 22.7355 17.0038C23.0992 17.0038 23.4457 17.119 23.7379 17.337C24.0295 17.5546 24.2392 17.8543 24.3442 18.2033C25.7977 23.0505 25.7749 27.1287 24.2726 31.0376C24.1669 31.3126 24.2017 31.6228 24.3654 31.8667C24.5291 32.1106 24.8007 32.2564 25.0911 32.2564H35.7047C36.8201 32.2564 37.7275 33.1794 37.7275 34.314C37.7275 34.8626 37.5169 35.3793 37.1359 35.7676C36.7527 36.1562 36.2446 36.3703 35.7047 36.3703H32.0941C31.6086 36.3703 31.2152 36.7703 31.2152 37.2639C31.2152 37.7575 31.6086 38.1574 32.0941 38.1574H34.7215C35.8368 38.1574 36.7441 39.0804 36.7441 40.2151C36.7441 40.7647 36.5339 41.2812 36.1519 41.6695C35.7701 42.0577 35.2621 42.2715 34.7215 42.2715H32.0941C31.6086 42.2715 31.2152 42.6714 31.2152 43.165C31.2152 43.6586 31.6086 44.0586 32.0941 44.0586H33.7569C34.8723 44.0586 35.7797 44.9811 35.7797 46.115C35.7797 46.6644 35.5693 47.181 35.1875 47.5693C34.8048 47.9584 34.2967 48.1725 33.7569 48.1725H32.5804H31.1296C30.6441 48.1725 30.2507 48.5725 30.2507 49.0661C30.2507 49.5597 30.6441 49.9596 31.1296 49.9596H32.5804C33.6957 49.9596 34.6031 50.8821 34.6031 52.016C34.6031 52.5655 34.3925 53.0825 34.0117 53.4707C33.6547 53.8328 33.0908 54.0638 32.6688 54.0714C32.6396 54.0719 17.0145 54.0736 17.0145 54.0736C16.436 54.073 15.8571 53.8702 15.3846 53.5019V53.5019Z" fill="#40bbaa"/>
<path d="M48.1745 14.0407C48.1745 12.163 46.6719 10.6354 44.825 10.6354C42.9782 10.6354 41.4756 12.163 41.4756 14.0407C41.4756 15.9183 42.9782 17.4459 44.825 17.4459C46.6719 17.4459 48.1745 15.9183 48.1745 14.0407ZM43.2334 14.0407C43.2334 13.1484 43.9474 12.4225 44.825 12.4225C45.7027 12.4225 46.4167 13.1484 46.4167 14.0407C46.4167 14.9329 45.7027 15.6588 44.825 15.6588C43.9474 15.6588 43.2334 14.933 43.2334 14.0407Z" fill="#40bbaa"/>
<path d="M45.3746 44.53H43.7983C42.9681 44.53 42.2926 43.8431 42.2926 42.999C42.2926 42.5054 41.8992 42.1055 41.4137 42.1055C40.9282 42.1055 40.5348 42.5054 40.5348 42.999C40.5348 44.7977 41.9499 46.2655 43.7075 46.3147V48.2922C43.7075 48.7858 44.1009 49.1858 44.5864 49.1858C45.0719 49.1858 45.4653 48.7858 45.4653 48.2922V46.3147C47.223 46.2655 48.6382 44.7977 48.6382 42.999V41.762C48.6382 40.6143 47.9169 39.6051 46.8432 39.2503L42.8729 37.9391C42.5258 37.8244 42.2926 37.4982 42.2926 37.1272V35.3559C42.2926 34.6704 42.8412 34.1126 43.5155 34.1126H45.6576C46.3319 34.1126 46.8805 34.6704 46.8805 35.3559C46.8805 35.8495 47.2739 36.2495 47.7594 36.2495C48.2449 36.2495 48.6383 35.8495 48.6383 35.3559C48.6383 33.685 47.3012 32.3255 45.6576 32.3255H45.4653V30.3503C45.4653 29.8567 45.0719 29.4568 44.5864 29.4568C44.1009 29.4568 43.7075 29.8567 43.7075 30.3503V32.3255H43.5153C41.8719 32.3255 40.5347 33.6848 40.5347 35.3559V37.1272C40.5347 38.2749 41.256 39.2841 42.3296 39.6388L46.2998 40.9499C46.6471 41.0647 46.8803 41.391 46.8803 41.762V42.999C46.8805 43.8431 46.2049 44.53 45.3746 44.53V44.53Z" fill="#40bbaa"/>
</svg>
