<svg width="83" height="50" viewBox="0 0 83 50" fill="none" xmlns="http://www.w3.org/2000/svg">
<g clip-path="url(#clip0)">
<path d="M34.3655 34.9226H16.5518C16.2001 34.9226 15.9155 35.2112 15.9155 35.5648V40.7018C15.9155 41.0581 16.2001 41.344 16.5518 41.344H34.3655C34.7171 41.344 35.0017 41.0581 35.0016 40.7018V35.5648C35.0016 35.2112 34.7171 34.9226 34.3655 34.9226ZM33.7292 40.0598H17.188V36.207H33.7292V40.0598Z" fill="#40bbaa"/>
<path d="M67.4485 1.53101H49.6346C49.2831 1.53101 48.9985 1.81826 48.9985 2.1732C48.9985 2.52813 49.2831 2.81523 49.6346 2.81523H67.4483C67.8 2.81523 68.0846 2.52813 68.0846 2.1732C68.0846 1.81826 67.8001 1.53101 67.4485 1.53101Z" fill="#40bbaa"/>
<path d="M67.8979 1.71908C67.6495 1.46815 67.247 1.46815 66.9984 1.71908L33.9158 35.1109C33.6674 35.3616 33.6674 35.7678 33.9158 36.0188C34.0402 36.1442 34.203 36.207 34.3657 36.207C34.5285 36.207 34.6913 36.1442 34.8157 36.0188L67.8979 2.62699C68.1465 2.37622 68.1464 1.97001 67.8979 1.71908Z" fill="#40bbaa"/>
<path d="M67.8979 6.85739C67.6495 6.60646 67.247 6.60646 66.9984 6.85739L33.9158 40.2479C33.6674 40.4987 33.6674 40.905 33.9158 41.156C34.0402 41.2812 34.203 41.344 34.3657 41.344C34.5285 41.344 34.6913 41.2813 34.8153 41.156L67.8979 7.76529C68.1465 7.51452 68.1464 7.10831 67.8979 6.85739Z" fill="#40bbaa"/>
<path d="M50.0841 1.71908C49.8356 1.46815 49.433 1.46815 49.1844 1.71908L16.102 35.1109C15.8534 35.3616 15.8534 35.7678 16.102 36.0188C16.2262 36.1442 16.389 36.207 16.5517 36.207C16.7145 36.207 16.8774 36.1442 17.0017 36.0188L50.0841 2.62699C50.3325 2.37622 50.3325 1.97001 50.0841 1.71908Z" fill="#40bbaa"/>
<path d="M67.4483 1.53076C67.0966 1.53076 66.812 1.81802 66.812 2.17295V7.31127C66.812 7.6662 67.0966 7.95346 67.4483 7.95346C67.7999 7.95346 68.0844 7.6662 68.0844 7.31127V2.17295C68.0844 1.81802 67.7999 1.53076 67.4483 1.53076Z" fill="#40bbaa"/>
<path d="M44.9351 24.7847C44.9003 24.757 41.5839 22.2317 37.7325 26.1215L28.8262 35.1108L29.7258 36.0188L38.632 27.0289C41.6683 23.9657 44.0589 25.7246 44.1547 25.7979C44.4331 26.018 44.8332 25.9659 45.0469 25.6857C45.2632 25.4055 45.2134 25.0023 44.9351 24.7847Z" fill="#40bbaa"/>
<path d="M37.9966 9.42599C37.748 9.17506 37.3455 9.17506 37.0969 9.42599L33.2797 13.2788C33.0311 13.5296 33.0311 13.9359 33.2797 14.1869C33.4039 14.3123 33.5667 14.3749 33.7295 14.3749C33.8924 14.3749 34.055 14.3123 34.1794 14.1869L37.9966 10.3339C38.2451 10.0833 38.2451 9.67692 37.9966 9.42599Z" fill="#40bbaa"/>
<path d="M19.733 42.6283H1.9193C1.56765 42.6283 1.2832 42.9167 1.2832 43.2705V48.4075C1.2832 48.7637 1.56765 49.0495 1.9193 49.0495H19.733C20.0847 49.0495 20.3693 48.7636 20.3693 48.4075V43.2705C20.3693 42.9167 20.0847 42.6283 19.733 42.6283ZM19.0968 47.7652H2.55555V43.9124H19.0968V47.7652Z" fill="#40bbaa"/>
<path d="M39.4578 9.23389H35.0018C34.6502 9.23389 34.3657 9.52098 34.3657 9.87592C34.3657 10.2308 34.6502 10.5181 35.0018 10.5181H39.4578C39.8095 10.5181 40.0941 10.2308 40.0941 9.87592C40.0941 9.52098 39.8095 9.23389 39.4578 9.23389Z" fill="#40bbaa"/>
<path d="M25.2326 42.8567C24.9841 42.6057 24.5816 42.6057 24.333 42.8567L19.2831 47.9537C19.0345 48.2044 19.0345 48.6106 19.2831 48.8616C19.4074 48.987 19.5703 49.0496 19.7329 49.0496C19.8957 49.0496 20.0584 48.987 20.1827 48.8616L25.2326 43.7646C25.4812 43.5138 25.481 43.1076 25.2326 42.8567Z" fill="#40bbaa"/>
<path d="M35.4517 9.42465C35.2033 9.17372 34.8008 9.17372 34.5522 9.42465L1.46966 42.8164C1.22105 43.0672 1.22105 43.4736 1.46966 43.7245C1.59389 43.8497 1.75665 43.9126 1.91942 43.9126C2.08218 43.9126 2.24495 43.8497 2.36918 43.7245L35.4517 10.3326C35.7003 10.0819 35.7003 9.67557 35.4517 9.42465Z" fill="#40bbaa"/>
<path d="M48.9983 42.6283H31.1846C30.8329 42.6283 30.5483 42.9167 30.5483 43.2705V48.4075C30.5483 48.7637 30.8329 49.0495 31.1846 49.0495H48.9981C49.3498 49.0495 49.6344 48.7636 49.6344 48.4075V43.2705C49.6344 42.9167 49.35 42.6283 48.9983 42.6283ZM48.362 47.7652H31.8207V43.9124H48.362V47.7652Z" fill="#40bbaa"/>
<path d="M82.081 9.23657H67.4546C67.1028 9.23657 66.8184 9.52367 66.8184 9.8786C66.8184 10.2335 67.1028 10.5208 67.4546 10.5208H82.081C82.4326 10.5208 82.7171 10.2335 82.7171 9.8786C82.7171 9.52367 82.4326 9.23657 82.081 9.23657Z" fill="#40bbaa"/>
<path d="M82.5303 9.42465C82.2819 9.17372 81.8794 9.17372 81.6308 9.42465L48.5483 42.8164C48.2997 43.0672 48.2997 43.4736 48.5483 43.7245C48.6725 43.8497 48.8354 43.9126 48.998 43.9126C49.161 43.9126 49.3236 43.8497 49.4479 43.7245L82.5303 10.3326C82.779 10.0819 82.7788 9.67557 82.5303 9.42465Z" fill="#40bbaa"/>
<path d="M82.5304 14.563C82.2819 14.3122 81.8794 14.3122 81.6308 14.563L48.5483 47.9536C48.2997 48.2044 48.2997 48.6106 48.5483 48.8615C48.6725 48.9869 48.8354 49.0496 48.998 49.0496C49.161 49.0496 49.3236 48.9869 49.4479 48.8615L82.5304 15.471C82.779 15.2203 82.779 14.8139 82.5304 14.563Z" fill="#40bbaa"/>
<path d="M82.0809 9.23657C81.7293 9.23657 81.4448 9.52367 81.4448 9.8786V15.0171C81.4448 15.372 81.7293 15.6591 82.0809 15.6591C82.4326 15.6591 82.717 15.372 82.717 15.0171V9.8786C82.717 9.52367 82.4326 9.23657 82.0809 9.23657Z" fill="#40bbaa"/>
<path d="M43.0863 37.6794C42.8379 37.4285 42.4353 37.4285 42.1867 37.6794L37.0971 42.8164C36.8485 43.0672 36.8485 43.4736 37.0971 43.7245C37.2213 43.8497 37.3843 43.9126 37.5469 43.9126C37.7098 43.9126 37.8726 43.8497 37.9966 43.7245L43.0863 38.5873C43.3349 38.3367 43.3348 37.9303 43.0863 37.6794Z" fill="#40bbaa"/>
<path d="M53.2654 33.8266C53.0169 33.5757 52.6143 33.5757 52.3657 33.8266L43.4589 42.8139C43.2103 43.0647 43.2103 43.471 43.4589 43.722C43.583 43.8472 43.7459 43.91 43.9087 43.91C44.0714 43.91 44.2342 43.8472 44.3584 43.722L53.2654 34.7345C53.5138 34.4838 53.5138 34.0776 53.2654 33.8266Z" fill="#40bbaa"/>
<path d="M69.7546 9.48003C69.5062 9.2291 69.1037 9.22974 68.8551 9.47939L63.4199 14.9645L64.3194 15.8724L69.7546 10.3886C70.0032 10.1378 70.0031 9.73096 69.7546 9.48003Z" fill="#40bbaa"/>
<path d="M54.54 1.71908C54.2915 1.46815 53.8891 1.46815 53.6405 1.71908L47.2773 8.14291C47.0287 8.39368 47.0287 8.79989 47.2773 9.05082C47.4015 9.1762 47.5643 9.23906 47.727 9.23906C47.8898 9.23906 48.0526 9.17636 48.1768 9.05082L54.54 2.62699C54.7886 2.37622 54.7884 1.97001 54.54 1.71908Z" fill="#40bbaa"/>
<path d="M60.8997 1.71908C60.6512 1.46815 60.2488 1.46815 60.0002 1.71908L47.2773 14.5605C47.0287 14.8112 47.0287 15.2176 47.2773 15.4685C47.4015 15.5939 47.5643 15.6566 47.727 15.6566C47.8898 15.6566 48.0526 15.5941 48.1768 15.4685L60.8997 2.62699C61.1483 2.37622 61.1481 1.97001 60.8997 1.71908Z" fill="#40bbaa"/>
</g>
<defs>
<clipPath id="clip0">
<rect width="83" height="49" fill="white" transform="translate(0 0.189941)"/>
</clipPath>
</defs>
</svg>
