<svg width="52" height="53" viewBox="0 0 52 53" fill="none" xmlns="http://www.w3.org/2000/svg">
<g clip-path="url(#clip0)">
<path d="M16.9556 32.3515L25.6193 37.3535C25.7371 37.4215 25.8686 37.4556 26.0001 37.4556C26.1316 37.4556 26.2632 37.4215 26.381 37.3535L35.0447 32.3515C35.2803 32.2154 35.4255 31.9641 35.4255 31.6919V21.688C35.4255 21.4158 35.2803 21.1644 35.0447 21.0283L26.381 16.0264C26.1453 15.8903 25.8549 15.8903 25.6193 16.0264L16.9556 21.0283C16.7199 21.1644 16.5747 21.4158 16.5747 21.688V31.6919C16.5747 31.9641 16.7199 32.2154 16.9556 32.3515ZM18.0981 23.0073L25.2384 27.1297V35.3746L18.0981 31.2521V23.0073ZM26.0001 25.8104L18.8599 21.688L21.6683 20.0665L28.8085 24.189L26.0001 25.8104ZM26.7618 35.3746V27.1297L33.9021 23.0073V31.2521L26.7618 35.3746ZM26.0001 17.5656L33.1404 21.688L30.332 23.3094L23.1917 19.187L26.0001 17.5656Z" fill="#40bbaa"/>
<path d="M26 40.5024C33.6163 40.5024 39.8125 34.3062 39.8125 26.6899C39.8125 19.0737 33.6163 12.8774 26 12.8774C18.3837 12.8774 12.1875 19.0737 12.1875 26.6899C12.1875 34.3062 18.3837 40.5024 26 40.5024ZM26 14.4009C32.7763 14.4009 38.2891 19.9137 38.2891 26.6899C38.2891 33.4662 32.7763 38.979 26 38.979C19.2237 38.979 13.7109 33.4662 13.7109 26.6899C13.7109 19.9137 19.2237 14.4009 26 14.4009Z" fill="#40bbaa"/>
<path d="M50.3771 24.5077C50.2672 24.4642 50.1454 24.4328 50.0245 24.3963L47.1991 23.5415C46.9603 21.9199 46.5364 20.3338 45.9358 18.8143L48.2049 16.3954C48.8985 15.6555 49.0238 14.5684 48.5167 13.6899C48.0095 12.8116 47.0059 12.3764 46.0186 12.6075C45.936 12.62 45.8606 12.6442 45.7971 12.6591L42.7823 13.3643C41.765 12.0847 40.6053 10.9251 39.3256 9.90765L40.0827 6.67207C40.3134 5.68448 39.8783 4.68033 39 4.17323C38.1215 3.66593 37.0372 3.7945 36.2976 4.48838C36.2084 4.56018 36.1214 4.64763 36.0265 4.7368L33.8759 6.75414C32.3562 6.1535 30.7701 5.72968 29.1484 5.4908L28.187 2.31271C27.8931 1.34207 27.0142 0.689941 26 0.689941C24.9857 0.689941 24.1105 1.34329 23.8167 2.31393C23.781 2.40513 23.7563 2.50009 23.7296 2.58855L22.8516 5.4908C21.2299 5.72968 19.6438 6.1535 18.1243 6.75414L15.7054 4.48503C14.9656 3.79146 13.8785 3.66623 13.0001 4.17323C12.1216 4.68043 11.6865 5.68468 11.9175 6.67218C11.9257 6.70234 11.9321 6.73413 11.9397 6.76714L12.6744 9.90765C11.3948 10.925 10.2351 12.0847 9.21771 13.3643L5.98213 12.6073C4.99454 12.3766 3.99049 12.8117 3.48329 13.69C2.97619 14.5685 3.10477 15.6527 3.79854 16.3924C3.87034 16.4817 3.95779 16.5686 4.04696 16.6636L6.0643 18.8142C5.46355 20.3338 5.03973 21.9199 4.80086 23.5415L1.62277 24.5029C0.652133 24.7968 0 25.6757 0 26.6899C0 27.7043 0.65325 28.5794 1.62398 28.8732C1.71519 28.909 1.81005 28.9337 1.89861 28.9604L4.80086 29.8384C5.03973 31.46 5.46355 33.0461 6.0642 34.5657L3.79509 36.9846C3.10152 37.7244 2.97619 38.8116 3.48329 39.6899C3.99049 40.5684 4.99474 41.0037 5.98213 40.7725L5.98061 40.766C6.08644 40.7481 6.20476 40.7205 6.34105 40.6886L9.21761 40.0157C10.235 41.2953 11.3946 42.455 12.6743 43.4723L11.9172 46.7079C11.6865 47.6954 12.1216 48.6997 12.9999 49.2068C13.8782 49.7139 14.9625 49.5854 15.7023 48.8916C15.7915 48.8198 15.8785 48.7324 15.9735 48.6432L18.1241 46.6258C19.6437 47.2265 21.2298 47.6503 22.8515 47.8892L23.8129 51.0674C24.1069 52.0378 24.9858 52.6899 26 52.6899C27.0144 52.6899 27.89 52.0368 28.1837 51.0662C28.2153 50.9852 28.2363 50.9039 28.258 50.8322L29.1484 47.8891C30.7701 47.6502 32.3562 47.2264 33.8758 46.6257L36.2947 48.8949C37.0346 49.5885 38.1219 49.7138 39 49.2067C39.8785 48.6994 40.3103 47.696 40.0792 46.7085C40.0667 46.6258 40.0458 46.5507 40.0309 46.487L39.3256 43.4722C40.6052 42.455 41.7648 41.2952 42.7823 40.0156L46.0179 40.7726C47.005 41.0031 48.0096 40.5683 48.5167 39.6899C49.0239 38.8114 48.8985 37.7243 48.2047 36.9845C48.1826 36.9626 48.1612 36.9381 48.1382 36.9135L45.9359 34.5656C46.5365 33.0461 46.9604 31.46 47.1992 29.8383L50.3773 28.8769C51.3479 28.5831 52 27.7041 52 26.6899C52 25.6756 51.3479 24.8015 50.3771 24.5077V24.5077ZM49.9359 27.4189L46.2895 28.5219C46.001 28.6092 45.7911 28.8584 45.7541 29.1576C45.5293 30.977 45.0549 32.7521 44.3441 34.4336C44.2268 34.711 44.2841 35.0316 44.4902 35.2513C45.5828 36.416 47.0635 37.9946 47.0923 38.0253C47.321 38.2693 47.3638 38.64 47.1974 38.9281C47.031 39.2164 46.6885 39.3645 46.3648 39.2891L42.6538 38.4208C42.361 38.3523 42.055 38.4626 41.8732 38.7023C40.7686 40.1597 39.4696 41.4586 38.0125 42.563C37.7727 42.7448 37.6624 43.0506 37.731 43.3437L37.9932 44.4645C38.2917 45.7403 38.5843 46.9913 38.5982 47.0509C38.6748 47.3785 38.5265 47.7209 38.2383 47.8873C37.95 48.0535 37.5792 48.011 37.3368 47.7836L34.5614 45.1801C34.3416 44.974 34.0211 44.9168 33.7437 45.0341C32.0622 45.7448 30.2871 46.2192 28.4678 46.4441C28.1686 46.481 27.9194 46.691 27.8321 46.9794L27.5489 47.9155C27.1514 49.2295 26.7454 50.5716 26.7298 50.6229C26.6325 50.9442 26.3328 51.1665 26 51.1665C25.6672 51.1665 25.3674 50.9442 25.2711 50.626L24.168 46.9795C24.0808 46.6909 23.8315 46.481 23.5323 46.4441C21.713 46.2192 19.9379 45.7448 18.2564 45.0341C18.1607 44.9936 18.0599 44.9739 17.96 44.9739C17.77 44.9739 17.5827 45.045 17.4387 45.1801C16.2757 46.271 14.7001 47.7491 14.6649 47.7818C14.4207 48.011 14.0499 48.0536 13.7617 47.8873C13.4735 47.7208 13.3251 47.3783 13.4008 47.0546L14.269 43.3437C14.3376 43.0507 14.2273 42.7448 13.9875 42.563C12.5303 41.4586 11.2314 40.1596 10.1268 38.7023C9.945 38.4626 9.63879 38.3523 9.34619 38.4208C7.78974 38.7849 5.67572 39.2796 5.63682 39.2886C5.31131 39.3647 4.96895 39.2164 4.80259 38.9281C4.63623 38.64 4.67888 38.2692 4.90628 38.0267L7.50973 35.2513C7.7158 35.0315 7.77309 34.711 7.65578 34.4336C6.94495 32.752 6.47065 30.9769 6.24579 29.1576C6.20882 28.8585 5.99889 28.6093 5.71045 28.5219L5.12566 28.345C3.70317 27.9147 2.10529 27.4312 2.06619 27.4194C1.74576 27.3225 1.52344 27.0228 1.52344 26.6899C1.52344 26.3572 1.74576 26.0574 2.06405 25.961L5.71045 24.858C5.99899 24.7707 6.20882 24.5215 6.24579 24.2223C6.47065 22.4029 6.94505 20.6279 7.65578 18.9463C7.77309 18.6688 7.7158 18.3483 7.50973 18.1286C6.41885 16.9656 4.94081 15.39 4.90801 15.3549C4.67888 15.1106 4.63623 14.7398 4.80248 14.4517C4.96884 14.1634 5.31121 14.0151 5.63509 14.0906L9.34609 14.9589C9.63869 15.0274 9.9449 14.9171 10.1267 14.6773C11.2312 13.2201 12.5302 11.9212 13.9874 10.8166C14.2272 10.6348 14.3375 10.329 14.2689 10.036C13.9055 8.48304 13.4122 6.3747 13.4014 6.32737C13.3251 6.00115 13.4734 5.65879 13.7616 5.49243C14.0497 5.32596 14.4206 5.36872 14.6631 5.59612L17.4385 8.19957C17.6582 8.40554 17.9786 8.46282 18.2562 8.34562C19.9377 7.63489 21.7128 7.16049 23.5321 6.93563C23.8313 6.89866 24.0805 6.68873 24.1678 6.40029L24.3447 5.8155C24.7751 4.39301 25.2585 2.79513 25.2704 2.75603C25.3675 2.4357 25.6672 2.21338 26 2.21338C26.3328 2.21338 26.6326 2.4358 26.7289 2.754L27.832 6.40039C27.9192 6.68893 28.1685 6.89886 28.4677 6.93583C30.287 7.16069 32.0621 7.63509 33.7436 8.34582C34.0211 8.46303 34.3416 8.40585 34.5613 8.19978C35.7243 7.10889 37.2999 5.63075 37.3351 5.59805C37.5792 5.36893 37.9499 5.32617 38.2384 5.49263C38.5265 5.65899 38.675 6.00146 38.5993 6.32514L37.7311 10.0361C37.6625 10.329 37.7728 10.6349 38.0126 10.8167C39.4699 11.9213 40.7688 13.2203 41.8733 14.6774C42.055 14.9172 42.3609 15.0273 42.6539 14.959L43.7748 14.6967C45.0532 14.3976 46.3068 14.1043 46.3616 14.0916C46.689 14.0152 47.0312 14.1635 47.1975 14.4516C47.364 14.7398 47.3212 15.1106 47.0938 15.3531L44.4904 18.1285C44.2843 18.3483 44.227 18.6687 44.3443 18.9462C45.0551 20.6277 45.5295 22.4028 45.7543 24.2222C45.7913 24.5214 46.0012 24.7705 46.2896 24.8579C47.8206 25.321 49.8993 25.9499 49.9347 25.9606C50.2543 26.0573 50.4767 26.357 50.4767 26.6898C50.4766 27.0228 50.2542 27.3226 49.9359 27.4189V27.4189Z" fill="#40bbaa"/>
<path d="M26 8.30713C21.7708 8.30713 17.6414 9.77918 14.3722 12.4522C14.0465 12.7185 13.9984 13.1984 14.2647 13.5241C14.531 13.8497 15.0107 13.8978 15.3365 13.6316C18.3344 11.1804 22.1214 9.83057 26 9.83057C35.2963 9.83057 42.8594 17.3936 42.8594 26.6899C42.8594 35.9863 35.2963 43.5493 26 43.5493C16.7037 43.5493 9.14062 35.9863 9.14062 26.6899C9.14062 22.6392 10.5985 18.7236 13.2455 15.6642C13.5207 15.3461 13.486 14.865 13.1678 14.5898C12.8497 14.3146 12.3687 14.3493 12.0934 14.6675C9.20684 18.0035 7.61719 22.2732 7.61719 26.6899C7.61719 36.8263 15.8637 45.0728 26 45.0728C36.1363 45.0728 44.3828 36.8263 44.3828 26.6899C44.3828 16.5536 36.1363 8.30713 26 8.30713Z" fill="#40bbaa"/>
</g>
<defs>
<clipPath id="clip0">
<rect width="52" height="52" fill="white" transform="translate(0 0.689941)"/>
</clipPath>
</defs>
</svg>
