<svg width="57" height="57" viewBox="0 0 57 57" fill="none" xmlns="http://www.w3.org/2000/svg">
<path d="M28.5001 2.43994C23.7783 2.44091 19.1412 3.6709 15.0606 6.00474C10.9799 8.33857 7.60152 11.6929 5.2692 15.7264C2.93688 19.7598 1.73391 24.3283 1.78275 28.967C1.83158 33.6056 3.13047 38.1487 5.54721 42.1339C5.42553 42.2788 5.35459 42.4583 5.34491 42.6459C5.33522 42.8335 5.38731 43.0191 5.49344 43.1753L6.50207 44.6618L2.21371 47.1896C2.05955 47.2805 1.93699 47.4151 1.86213 47.5756C1.78728 47.7362 1.76364 47.9153 1.79432 48.0893C1.825 48.2633 1.90856 48.4242 2.03403 48.5506C2.15949 48.6771 2.32098 48.7634 2.49726 48.798L6.19414 49.5243L5.94665 54.0176C5.93791 54.1762 5.9733 54.3342 6.04903 54.4746C6.12476 54.615 6.23797 54.7325 6.37651 54.8145C6.51506 54.8965 6.6737 54.9398 6.83543 54.9399C6.99716 54.94 7.15586 54.8968 7.2945 54.815L14.0967 50.801C18.3972 53.5034 23.3955 54.9395 28.5005 54.9395C33.6054 54.9395 38.6037 53.5034 42.9042 50.801L49.7064 54.815C49.845 54.8968 50.0037 54.94 50.1655 54.9399C50.3272 54.9398 50.4858 54.8965 50.6244 54.8145C50.7629 54.7325 50.8761 54.615 50.9519 54.4746C51.0276 54.3342 51.063 54.1762 51.0542 54.0176L50.8068 49.5243L54.5036 48.798C54.6799 48.7634 54.8414 48.6771 54.9669 48.5506C55.0923 48.4242 55.1759 48.2633 55.2066 48.0893C55.2373 47.9153 55.2136 47.7362 55.1388 47.5756C55.0639 47.4151 54.9413 47.2805 54.7872 47.1896L50.4985 44.6618L51.5071 43.1753C51.6133 43.0191 51.6654 42.8333 51.6556 42.6457C51.6459 42.458 51.5749 42.2784 51.4531 42.1336C53.8707 38.1485 55.1702 33.6052 55.2194 28.9663C55.2686 24.3274 54.0657 19.7585 51.7332 15.7248C49.4007 11.6912 46.0219 8.33677 41.9408 6.00316C37.8597 3.66955 33.2221 2.44009 28.5001 2.43994V2.43994ZM10.0607 41.8562C15.8153 39.1425 22.1169 37.7336 28.5001 37.7336C34.8832 37.7336 41.1849 39.1425 46.9394 41.8562L49.4555 43.0429L46.8857 46.83C41.1123 44.2489 34.8429 42.9133 28.4998 42.9133C22.1568 42.9133 15.8874 44.2489 10.114 46.83L7.54432 43.0429L10.0607 41.8562ZM28.5001 35.9836C23.4688 35.9905 18.4749 36.8323 13.729 38.4733C11.7381 35.5863 10.6782 32.1772 10.6876 28.6899C10.6876 19.0403 18.6781 11.1899 28.5001 11.1899C38.322 11.1899 46.3126 19.0403 46.3126 28.6899C46.3211 32.1771 45.2611 35.586 43.2705 38.4731C38.5248 36.8322 33.5311 35.9905 28.5001 35.9836V35.9836ZM34.6643 45.1098C30.6854 46.55 26.3144 46.55 22.3355 45.1098C26.4228 44.5145 30.577 44.5145 34.6643 45.1098V45.1098ZM7.81596 52.466L8.01435 48.8623C8.02596 48.6522 7.9601 48.445 7.82885 48.2787C7.6976 48.1124 7.50976 47.9982 7.29974 47.9569L5.10557 47.5258L7.49133 46.1195L9.05594 48.4253C9.17472 48.6004 9.35369 48.7275 9.56009 48.7834C9.76648 48.8394 9.98648 48.8204 10.1798 48.73C10.7759 48.451 11.3791 48.1863 11.9892 47.9356L12.9912 49.4121L7.81596 52.466ZM15.0608 49.3302C15.041 49.2865 15.0177 49.2445 14.9911 49.2045L13.6845 47.2795C15.5038 46.619 17.3665 46.0802 19.2598 45.6668C22.1029 47.1592 25.2766 47.94 28.5001 47.94C31.7235 47.94 34.8972 47.1592 37.7403 45.6668C39.6337 46.08 41.4964 46.6186 43.3157 47.279L42.0092 49.204C41.9825 49.2439 41.9592 49.2859 41.9396 49.3295C37.9266 51.85 33.2632 53.1893 28.5002 53.1893C23.7373 53.1893 19.0739 51.85 15.0609 49.3295L15.0608 49.3302ZM51.8946 47.5255L49.7004 47.9566C49.4904 47.9978 49.3025 48.1121 49.1713 48.2784C49.04 48.4447 48.9742 48.6519 48.9858 48.862L49.1842 52.4657L44.0091 49.4121L45.011 47.9356C45.6206 48.1868 46.2237 48.4516 46.8204 48.73C47.0138 48.8205 47.2339 48.8396 47.4405 48.7836C47.647 48.7277 47.8261 48.6005 47.9448 48.4253L49.5095 46.1195L51.8946 47.5255ZM49.8832 41.303L47.7103 40.2782C46.8154 39.8563 45.9057 39.4645 44.9814 39.103C47.0215 36.0005 48.1026 32.3835 48.0938 28.6899C48.0938 18.0754 39.3041 9.43994 28.5001 9.43994C17.696 9.43994 8.90631 18.0754 8.90631 28.6899C8.89653 32.3838 9.97735 36.0011 12.0178 39.1036C11.0948 39.4652 10.1857 39.8569 9.29028 40.2786L7.11794 41.303C4.84713 37.5852 3.62119 33.3421 3.56529 29.0067C3.50939 24.6713 4.62553 20.399 6.79975 16.626C8.97398 12.853 12.1284 9.71436 15.941 7.53066C19.7535 5.34696 24.0876 4.19637 28.5008 4.19637C32.9139 4.19637 37.2481 5.34696 41.0606 7.53066C44.8732 9.71436 48.0276 12.853 50.2018 16.626C52.376 20.399 53.4922 24.6713 53.4363 29.0067C53.3804 33.3421 52.1544 37.5852 49.8836 41.303H49.8832Z" fill="#40bbaa"/>
<path d="M36.9609 21.6899H32.0625C31.8264 21.6897 31.6 21.5974 31.433 21.4334C31.2661 21.2693 31.1721 21.0469 31.1719 20.8149V18.1899C31.1711 17.494 30.8893 16.8268 30.3884 16.3347C29.8875 15.8426 29.2084 15.5658 28.5 15.5649H26.7188C26.4825 15.5649 26.256 15.6571 26.089 15.8212C25.922 15.9853 25.8281 16.2079 25.8281 16.4399V18.3686C25.83 19.0295 25.6984 19.6843 25.4409 20.295C25.1834 20.9056 24.8052 21.46 24.3281 21.9261L23.6779 22.5649H18.7031C18.4669 22.5649 18.2404 22.6571 18.0734 22.8212C17.9063 22.9853 17.8125 23.2079 17.8125 23.4399V33.0649C17.8125 33.297 17.9063 33.5196 18.0734 33.6837C18.2404 33.8478 18.4669 33.9399 18.7031 33.9399H34.2891C34.6497 33.94 35.005 33.854 35.3243 33.6894C35.6437 33.5247 35.9175 33.2863 36.1224 32.9946C36.3272 32.703 36.4568 32.3668 36.5001 32.015C36.5434 31.6633 36.499 31.3064 36.3709 30.9752C36.8047 30.7057 37.1303 30.2971 37.2926 29.8187C37.4549 29.3404 37.4439 28.8216 37.2615 28.3502C37.6953 28.0807 38.0209 27.6721 38.1832 27.1937C38.3455 26.7154 38.3346 26.1966 38.1521 25.7252C38.5595 25.4716 38.872 25.095 39.0428 24.6519C39.2135 24.2088 39.2332 23.7232 39.0988 23.2681C38.9645 22.8131 38.6834 22.4132 38.2979 22.1286C37.9124 21.844 37.4432 21.6901 36.9609 21.6899V21.6899ZM19.5938 24.3149H23.1562V32.1899H19.5938V24.3149ZM36.9609 24.3149H36.0703C35.8341 24.3149 35.6076 24.4071 35.4405 24.5712C35.2735 24.7353 35.1797 24.9579 35.1797 25.1899C35.1797 25.422 35.2735 25.6446 35.4405 25.8087C35.6076 25.9728 35.8341 26.0649 36.0703 26.0649C36.1884 26.0649 36.3017 26.111 36.3852 26.1931C36.4687 26.2751 36.5156 26.3864 36.5156 26.5024C36.5156 26.6185 36.4687 26.7298 36.3852 26.8118C36.3017 26.8938 36.1884 26.9399 36.0703 26.9399H35.1797C34.9435 26.9399 34.7169 27.0321 34.5499 27.1962C34.3829 27.3603 34.2891 27.5829 34.2891 27.8149C34.2891 28.047 34.3829 28.2696 34.5499 28.4337C34.7169 28.5978 34.9435 28.6899 35.1797 28.6899C35.2978 28.6899 35.4111 28.736 35.4946 28.8181C35.5781 28.9001 35.625 29.0114 35.625 29.1274C35.625 29.2435 35.5781 29.3548 35.4946 29.4368C35.4111 29.5188 35.2978 29.5649 35.1797 29.5649H34.2891C34.0529 29.5649 33.8263 29.6571 33.6593 29.8212C33.4923 29.9853 33.3984 30.2079 33.3984 30.4399C33.3984 30.672 33.4923 30.8946 33.6593 31.0587C33.8263 31.2228 34.0529 31.3149 34.2891 31.3149C34.4072 31.3149 34.5204 31.361 34.6039 31.4431C34.6875 31.5251 34.7344 31.6364 34.7344 31.7524C34.7344 31.8685 34.6875 31.9798 34.6039 32.0618C34.5204 32.1438 34.4072 32.1899 34.2891 32.1899H24.9375V23.8023L25.5878 23.1637C26.2307 22.5354 26.7404 21.7881 27.0874 20.965C27.4344 20.142 27.6118 19.2594 27.6094 18.3686V17.3149H28.5C28.7361 17.3152 28.9625 17.4075 29.1295 17.5715C29.2964 17.7355 29.3904 17.958 29.3906 18.1899V20.8149C29.3914 21.5109 29.6732 22.1781 30.1741 22.6702C30.675 23.1623 31.3541 23.4391 32.0625 23.4399H36.9609C37.079 23.4399 37.1923 23.486 37.2758 23.5681C37.3593 23.6501 37.4062 23.7614 37.4062 23.8774C37.4062 23.9935 37.3593 24.1048 37.2758 24.1868C37.1923 24.2688 37.079 24.3149 36.9609 24.3149Z" fill="#40bbaa"/>
<path d="M26.6533 40.0868L27.4771 40.6749L27.1624 41.6264C27.1406 41.6923 27.1405 41.7634 27.1623 41.8293C27.1841 41.8952 27.2266 41.9527 27.2836 41.9934C27.3407 42.0342 27.4095 42.0561 27.48 42.0561C27.5506 42.0561 27.6193 42.0341 27.6764 41.9934L28.5002 41.4053L29.3241 41.9934C29.3811 42.0341 29.4499 42.0561 29.5204 42.0561C29.591 42.0561 29.6597 42.0342 29.7168 41.9934C29.7739 41.9527 29.8164 41.8952 29.8381 41.8293C29.8599 41.7634 29.8599 41.6923 29.8381 41.6264L29.5233 40.6749L30.3472 40.0868C30.4042 40.046 30.4467 39.9886 30.4685 39.9227C30.4903 39.8568 30.4903 39.7858 30.4685 39.7199C30.4467 39.654 30.4042 39.5966 30.3472 39.5559C30.2901 39.5151 30.2214 39.4932 30.1509 39.4932H29.1326L28.8178 38.5416C28.796 38.4757 28.7536 38.4183 28.6965 38.3776C28.6395 38.3369 28.5707 38.3149 28.5002 38.3149C28.4297 38.3149 28.361 38.3369 28.3039 38.3776C28.2469 38.4183 28.2044 38.4757 28.1826 38.5416L27.8679 39.4932H26.8496C26.779 39.4932 26.7103 39.5151 26.6533 39.5559C26.5962 39.5966 26.5538 39.654 26.532 39.7199C26.5102 39.7858 26.5102 39.8568 26.532 39.9227C26.5538 39.9886 26.5962 40.046 26.6533 40.0868V40.0868Z" fill="#40bbaa"/>
<path d="M21.5132 40.7194L22.337 41.3075L22.0223 42.259C22.0004 42.325 22.0004 42.396 22.0222 42.4619C22.0439 42.5278 22.0864 42.5853 22.1435 42.6261C22.2006 42.6668 22.2693 42.6888 22.3399 42.6887C22.4104 42.6887 22.4792 42.6668 22.5363 42.626L23.3601 42.0379L24.1839 42.626C24.241 42.6668 24.3097 42.6887 24.3803 42.6887C24.4508 42.6888 24.5196 42.6668 24.5767 42.6261C24.6337 42.5853 24.6762 42.5278 24.698 42.4619C24.7198 42.396 24.7198 42.325 24.6979 42.259L24.3832 41.3075L25.207 40.7194C25.2641 40.6786 25.3065 40.6212 25.3283 40.5553C25.3501 40.4894 25.3501 40.4184 25.3283 40.3525C25.3066 40.2866 25.2641 40.2292 25.207 40.1885C25.15 40.1477 25.0813 40.1258 25.0107 40.1258H23.9923L23.6777 39.1742C23.6559 39.1083 23.6135 39.0508 23.5564 39.0101C23.4993 38.9693 23.4306 38.9474 23.36 38.9474C23.2895 38.9474 23.2207 38.9693 23.1637 39.0101C23.1066 39.0508 23.0641 39.1083 23.0424 39.1742L22.7277 40.1258H21.7094C21.6389 40.1258 21.5702 40.1477 21.5131 40.1885C21.4561 40.2292 21.4136 40.2866 21.3918 40.3525C21.37 40.4184 21.37 40.4894 21.3918 40.5553C21.4136 40.6212 21.4561 40.6786 21.5132 40.7194V40.7194Z" fill="#40bbaa"/>
<path d="M31.7929 40.7194L32.6168 41.3075L32.302 42.259C32.2802 42.325 32.2802 42.396 32.3019 42.4619C32.3237 42.5278 32.3662 42.5853 32.4233 42.6261C32.4804 42.6668 32.5491 42.6888 32.6197 42.6887C32.6902 42.6887 32.759 42.6668 32.816 42.626L33.6399 42.0379L34.4637 42.626C34.5208 42.6668 34.5895 42.6887 34.6601 42.6887C34.7306 42.6888 34.7994 42.6668 34.8565 42.6261C34.9135 42.5853 34.956 42.5278 34.9778 42.4619C34.9996 42.396 34.9995 42.325 34.9777 42.259L34.663 41.3075L35.4868 40.7194C35.5439 40.6786 35.5863 40.6212 35.6081 40.5553C35.6299 40.4894 35.6299 40.4184 35.6081 40.3525C35.5863 40.2866 35.5438 40.2292 35.4868 40.1884C35.4297 40.1477 35.361 40.1258 35.2904 40.1258H34.2721L33.9575 39.1742C33.9357 39.1083 33.8932 39.0508 33.8362 39.0101C33.7791 38.9693 33.7104 38.9474 33.6398 38.9474C33.5693 38.9474 33.5005 38.9693 33.4435 39.0101C33.3864 39.0508 33.3439 39.1083 33.3221 39.1742L33.0075 40.1258H31.9892C31.9187 40.1258 31.85 40.1477 31.7929 40.1885C31.7359 40.2292 31.6934 40.2866 31.6716 40.3525C31.6498 40.4184 31.6498 40.4894 31.6716 40.5553C31.6934 40.6212 31.7359 40.6786 31.7929 40.7194V40.7194Z" fill="#40bbaa"/>
</svg>
