<svg width="39" height="39" viewBox="0 0 39 39" fill="none" xmlns="http://www.w3.org/2000/svg">
<g clip-path="url(#clip0_28_116)">
<path d="M20.4981 12.1773C20.1536 12.5219 20.1536 13.0805 20.4982 13.4252C20.8429 13.7698 21.4016 13.7697 21.7461 13.425L22.4746 12.6962C22.7367 12.434 22.807 12.0361 22.6506 11.7C22.1644 10.6553 21.9178 9.57451 21.9178 8.48754C21.9178 6.27469 22.8811 4.19049 24.5059 2.75049L24.5087 8.52646C24.5088 8.81578 24.6508 9.08675 24.8887 9.25149L29.0751 12.1504C29.3772 12.3595 29.7773 12.3597 30.0794 12.1505L34.2674 9.25316C34.5056 9.08834 34.6477 8.81719 34.6477 8.52743L34.6471 2.75181C36.2717 4.19049 37.2351 6.27301 37.2356 8.48401C37.2356 10.5302 36.4389 12.454 34.9922 13.901C33.5466 15.3469 31.6252 16.1428 29.5812 16.1428C29.5792 16.1428 29.5772 16.1428 29.5752 16.1428C28.8718 16.1423 27.4912 15.8018 27.0186 15.6706C26.7121 15.5854 26.3834 15.6719 26.1584 15.8967L23.4759 18.5794C23.1314 18.9239 23.1314 19.4826 23.4759 19.8273C23.6482 19.9995 23.874 20.0857 24.0998 20.0857C24.3256 20.0857 24.5515 19.9995 24.7237 19.8273L27.049 17.5019C27.6973 17.6622 28.8116 17.907 29.5738 17.9075C29.5764 17.9075 29.5786 17.9075 29.5812 17.9075C32.0963 17.9075 34.4612 16.9278 36.24 15.1486C38.0199 13.3684 39.0001 11.0015 39.0001 8.48384C38.9993 5.0926 37.1593 1.9479 34.1981 0.276809C33.9249 0.122662 33.5904 0.125045 33.3194 0.283251C33.0486 0.441456 32.882 0.731574 32.8821 1.04534L32.8828 8.06507L29.5775 10.3518L26.2733 8.06357L26.2699 1.04331C26.2697 0.729633 26.103 0.439603 25.8321 0.281574C25.5613 0.123456 25.2268 0.121251 24.9536 0.275486C21.9927 1.94807 20.1533 5.09472 20.1533 8.48746C20.1533 9.63346 20.3721 10.7687 20.8048 11.8707L20.4981 12.1773Z" fill="#40BBAA"/>
<path d="M18.1613 23.8938L5.92112 36.1345C5.46115 36.5947 4.84968 36.8483 4.19939 36.8487C4.19894 36.8487 4.19859 36.8487 4.19806 36.8487C3.54794 36.8486 2.93639 36.5952 2.4765 36.1353C2.01671 35.675 1.76383 35.0628 1.76462 34.4111C1.76533 33.7615 2.01865 33.1516 2.47906 32.6927L13.0072 22.1635C13.3518 21.819 13.3518 21.2604 13.0072 20.9157C12.6627 20.5713 12.1039 20.5712 11.7594 20.9158L1.23239 31.4439C0.438974 32.2345 0.00132653 33.2876 3.00345e-06 34.4091C-0.00132053 35.5324 0.434827 36.5884 1.22841 37.3829C2.022 38.1765 3.07659 38.6134 4.19806 38.6134C4.19886 38.6134 4.19965 38.6134 4.20036 38.6134C5.32192 38.6128 6.37633 38.1754 7.16921 37.3821L19.4091 25.1418C19.7537 24.7972 19.7537 24.2385 19.4091 23.8938C19.0645 23.5494 18.5059 23.5494 18.1613 23.8938Z" fill="#40BBAA"/>
<path d="M4.18527 33.3398C3.89462 33.34 3.62162 33.4536 3.42009 33.6562C2.99594 34.0777 2.99383 34.7664 3.41533 35.1913C3.41639 35.1924 3.41744 35.1934 3.4185 35.1945C3.62983 35.4053 3.90724 35.5109 4.18509 35.5109C4.46356 35.5109 4.74247 35.4048 4.95539 35.1923C5.37768 34.768 5.37644 34.0793 4.95441 33.6585C4.74927 33.453 4.47644 33.3398 4.18597 33.3398C4.1858 33.3398 4.18553 33.3398 4.18527 33.3398Z" fill="#40BBAA"/>
<path d="M33.0337 28.8668C32.9423 28.7755 32.832 28.7053 32.7106 28.6612L30.1803 27.7437L21.0401 18.6035L22.5175 17.1262C22.862 16.7817 22.8621 16.223 22.5175 15.8783C22.2559 15.617 21.8711 15.5538 21.5501 15.6891L7.72527 1.86584C6.88915 1.02698 5.77562 0.564278 4.58983 0.562866C4.58806 0.562866 4.58647 0.562866 4.58471 0.562866C3.39891 0.562866 2.28433 1.02398 1.44565 1.86169C0.605914 2.70143 0.143826 3.81743 0.144532 5.00419C0.14515 6.18998 0.607591 7.30493 1.44644 8.14334L15.2715 21.9678C15.1362 22.2887 15.1991 22.6735 15.4607 22.935C15.8053 23.2795 16.364 23.2797 16.7085 22.935L18.1855 21.458L27.3257 30.5982L28.2432 33.1286C28.2873 33.25 28.3574 33.3604 28.4488 33.4517L33.5774 38.5802C33.7497 38.7524 33.9755 38.8386 34.2013 38.8386C34.4271 38.8386 34.653 38.7524 34.8252 38.5802L38.1622 35.2432C38.3277 35.0777 38.4207 34.8533 38.4207 34.6193C38.4207 34.3853 38.3277 34.1609 38.1622 33.9954L33.0337 28.8668ZM19.1682 17.9795C19.1664 17.9814 19.1644 17.9834 19.1626 17.9853L16.4736 20.6742L2.69409 6.89534C2.18833 6.38984 1.90959 5.71792 1.90924 5.00331C1.90888 4.28825 2.18736 3.61572 2.69312 3.10995C3.19827 2.60534 3.86991 2.32766 4.58471 2.32766C4.58577 2.32766 4.58683 2.32766 4.5878 2.32766C5.30189 2.32845 5.97212 2.60693 6.4763 3.11269L20.2564 16.8914L19.174 17.9739C19.1721 17.9757 19.1702 17.9776 19.1682 17.9795ZM34.2013 36.7085L29.8354 32.3426L28.9179 29.8122C28.8739 29.6907 28.8037 29.5804 28.7123 29.489L19.4334 20.2102L19.7923 19.8514L29.0711 29.1303C29.1626 29.2216 29.2729 29.2917 29.3943 29.3359L31.9246 30.2533L36.2905 34.6192L34.2013 36.7085Z" fill="#40BBAA"/>
<path d="M5.20448 4.37408C4.85993 4.02961 4.30122 4.02961 3.95666 4.37408C3.6121 4.71863 3.6121 5.27734 3.95666 5.62199L16.1288 17.794C16.301 17.9663 16.5269 18.0525 16.7527 18.0525C16.9785 18.0525 17.2044 17.9663 17.3766 17.794C17.7212 17.4495 17.7212 16.8908 17.3766 16.5461L5.20448 4.37408Z" fill="#40BBAA"/>
</g>
<defs>
<clipPath id="clip0_28_116">
<rect width="39" height="39" fill="white"/>
</clipPath>
</defs>
</svg>
