<svg width="24" height="25" viewBox="0 0 24 25" fill="none" xmlns="http://www.w3.org/2000/svg">
<g clip-path="url(#clip0)">
<path d="M19.915 13.5707C19.527 13.0603 19.638 12.8332 19.915 12.377C19.92 12.3718 23.123 7.76137 23.453 6.19783L23.455 6.19679C23.619 5.627 23.455 5.20825 22.662 5.20825H20.038C19.37 5.20825 19.062 5.56763 18.897 5.96971C18.897 5.96971 17.561 9.30096 15.671 11.4603C15.061 12.0843 14.779 12.2843 14.446 12.2843C14.282 12.2843 14.027 12.0843 14.027 11.5145V6.19679C14.027 5.51346 13.84 5.20825 13.287 5.20825H9.161C8.742 5.20825 8.493 5.527 8.493 5.82388C8.493 6.47179 9.438 6.62075 9.536 8.44367V12.3989C9.536 13.2655 9.385 13.4249 9.05 13.4249C8.158 13.4249 5.993 10.0801 4.71 6.252C4.451 5.50929 4.198 5.20929 3.525 5.20929H0.9C0.151 5.20929 0 5.56867 0 5.97075C0 6.68117 0.892 10.2135 4.148 14.8801C6.318 18.0655 9.374 19.7916 12.154 19.7916C13.825 19.7916 14.029 19.4082 14.029 18.7489C14.029 15.7051 13.878 15.4176 14.715 15.4176C15.103 15.4176 15.771 15.6176 17.331 17.1541C19.114 18.976 19.407 19.7916 20.405 19.7916H23.029C23.777 19.7916 24.156 19.4082 23.938 18.652C23.439 17.0614 20.067 13.7895 19.915 13.5707V13.5707Z" fill="#95CA6A"/>
</g>
<defs>
<clipPath id="clip0">
<rect width="24" height="25" fill="white"/>
</clipPath>
</defs>
</svg>
